<svg xmlns="http://www.w3.org/2000/svg" width="477" height="40" viewBox="0 0 477 39" fill="none">
<mask id="path-1-outside-1_2343_104" maskUnits="userSpaceOnUse" x="-1" y="-1" width="477" height="39" fill="black">
<rect fill="white" x="-1" y="-1" width="477" height="39"/>
<path d="M41.7773 1.35L34.2773 17.1L42.5773 36H34.0773L27.8773 20.8H25.2773V36H17.9773V20.8H15.2773L8.97734 36H0.677344L8.92734 17.1L1.47734 1.35H9.17734L15.4773 15.1H17.9773V1.35H25.2773V15.1H27.7273L34.1273 1.35H41.7773ZM74.2395 1.35L66.7395 17.1L75.0895 36H66.5895L59.9895 20.85H56.9395V36H48.9395V1.35H56.9395V15H60.1895L66.5895 1.35H74.2395ZM120.553 1.35V36H112.503V7.5H103.953V36H95.9531V1.35H120.553ZM139.882 1.35C144.316 1.35 147.716 2.3 150.082 4.2C152.482 6.1 153.682 8.9 153.682 12.6C153.682 16.5 152.516 19.45 150.182 21.45C147.882 23.4167 144.699 24.4 140.632 24.4H137.982V36H129.982V1.35H139.882ZM139.982 18.6C141.849 18.6 143.232 18.15 144.132 17.25C145.032 16.3167 145.482 14.7833 145.482 12.65C145.482 10.75 145.032 9.35 144.132 8.45C143.266 7.51666 141.882 7.05 139.982 7.05H137.982V18.6H139.982ZM180.78 1.35L179.93 7.05H169.18V15.6H178.58V21.2H169.18V30.2H180.68V36H161.18V1.35H180.78ZM201.178 0.499998C205.744 0.499998 209.261 2.05 211.728 5.15C214.194 8.21666 215.428 12.7167 215.428 18.65C215.428 24.5167 214.178 29.0167 211.678 32.15C209.211 35.2833 205.711 36.85 201.178 36.85C196.644 36.85 193.128 35.3 190.628 32.2C188.161 29.1 186.928 24.5833 186.928 18.65C186.928 12.8167 188.161 8.33333 190.628 5.2C193.128 2.06666 196.644 0.499998 201.178 0.499998ZM201.178 6.35C199.144 6.35 197.644 7.3 196.678 9.2C195.744 11.1 195.278 14.25 195.278 18.65C195.278 23.1167 195.761 26.3 196.728 28.2C197.694 30.0667 199.178 31 201.178 31C203.211 31 204.694 30.0667 205.628 28.2C206.594 26.3 207.078 23.1167 207.078 18.65C207.078 14.25 206.594 11.1 205.628 9.2C204.694 7.3 203.211 6.35 201.178 6.35ZM234.722 13.75C238.789 13.75 241.905 14.6667 244.072 16.5C246.272 18.3 247.372 20.9833 247.372 24.55C247.372 28.35 246.239 31.2167 243.972 33.15C241.705 35.05 238.572 36 234.572 36H223.672V1.35H243.672L242.872 7.4H231.672V13.75H234.722ZM234.072 30.2C235.772 30.2 237.022 29.7667 237.822 28.9C238.622 28 239.022 26.5833 239.022 24.65C239.022 22.85 238.605 21.5167 237.772 20.65C236.972 19.75 235.689 19.3 233.922 19.3H231.672V30.2H234.072ZM264.72 1.35C269.154 1.35 272.554 2.3 274.92 4.2C277.32 6.1 278.52 8.9 278.52 12.6C278.52 16.5 277.354 19.45 275.02 21.45C272.72 23.4167 269.537 24.4 265.47 24.4H262.82V36H254.82V1.35H264.72ZM264.82 18.6C266.687 18.6 268.07 18.15 268.97 17.25C269.87 16.3167 270.32 14.7833 270.32 12.65C270.32 10.75 269.87 9.35 268.97 8.45C268.104 7.51666 266.72 7.05 264.82 7.05H262.82V18.6H264.82ZM299.739 36L298.189 28.45H289.389L287.839 36H279.739L289.089 1.35H298.689L307.989 36H299.739ZM290.589 22.7H296.989L293.789 7.2L290.589 22.7ZM352.188 1.35L344.688 17.1L352.988 36H344.488L338.288 20.8H335.688V36H328.388V20.8H325.688L319.388 36H311.087L319.338 17.1L311.888 1.35H319.588L325.888 15.1H328.388V1.35H335.688V15.1H338.138L344.538 1.35H352.188ZM378.95 1.35L378.1 7.05H367.35V15.6H376.75V21.2H367.35V30.2H378.85V36H359.35V1.35H378.95ZM403.681 36V21.1H395.031V36H387.031V1.35H395.031V14.85H403.681V1.35H411.681V36H403.681ZM445.559 36H437.909V22.8C437.909 18.3 438.243 13.7833 438.909 9.25L430.609 36H421.109V1.35H428.709V14.75C428.709 17.45 428.626 19.8 428.459 21.8C428.293 23.8 428.059 25.9 427.759 28.1L436.159 1.35H445.559V36ZM474.641 1.35L473.791 7.05H463.041V15.6H472.441V21.2H463.041V30.2H474.541V36H455.041V1.35H474.641Z"/>
</mask>
<path d="M41.7773 1.35L42.6802 1.77993L43.3611 0.349999H41.7773V1.35ZM34.2773 17.1L33.3745 16.6701L33.1778 17.0832L33.3617 17.5021L34.2773 17.1ZM42.5773 36V37H44.1087L43.4929 35.5979L42.5773 36ZM34.0773 36L33.1514 36.3777L33.4053 37H34.0773V36ZM27.8773 20.8L28.8033 20.4223L28.5494 19.8H27.8773V20.8ZM25.2773 20.8V19.8H24.2773V20.8H25.2773ZM25.2773 36V37H26.2773V36H25.2773ZM17.9773 36H16.9773V37H17.9773V36ZM17.9773 20.8H18.9773V19.8H17.9773V20.8ZM15.2773 20.8V19.8H14.6093L14.3536 20.4171L15.2773 20.8ZM8.97734 36V37H9.64536L9.90114 36.3829L8.97734 36ZM0.677344 36L-0.239147 35.5999L-0.850283 37H0.677344V36ZM8.92734 17.1L9.84383 17.5001L10.0257 17.0834L9.83132 16.6724L8.92734 17.1ZM1.47734 1.35V0.349999H-0.101902L0.573372 1.77759L1.47734 1.35ZM9.17734 1.35L10.0865 0.933458L9.81913 0.349999H9.17734V1.35ZM15.4773 15.1L14.5682 15.5165L14.8356 16.1H15.4773V15.1ZM17.9773 15.1V16.1H18.9773V15.1H17.9773ZM17.9773 1.35V0.349999H16.9773V1.35H17.9773ZM25.2773 1.35H26.2773V0.349999H25.2773V1.35ZM25.2773 15.1H24.2773V16.1H25.2773V15.1ZM27.7273 15.1V16.1H28.3649L28.6339 15.522L27.7273 15.1ZM34.1273 1.35V0.349999H33.4898L33.2207 0.928016L34.1273 1.35ZM40.8745 0.920066L33.3745 16.6701L35.1802 17.5299L42.6802 1.77993L40.8745 0.920066ZM33.3617 17.5021L41.6617 36.4021L43.4929 35.5979L35.1929 16.6979L33.3617 17.5021ZM42.5773 35H34.0773V37H42.5773V35ZM35.0033 35.6223L28.8033 20.4223L26.9514 21.1777L33.1514 36.3777L35.0033 35.6223ZM27.8773 19.8H25.2773V21.8H27.8773V19.8ZM24.2773 20.8V36H26.2773V20.8H24.2773ZM25.2773 35H17.9773V37H25.2773V35ZM18.9773 36V20.8H16.9773V36H18.9773ZM17.9773 19.8H15.2773V21.8H17.9773V19.8ZM14.3536 20.4171L8.05355 35.6171L9.90114 36.3829L16.2011 21.1829L14.3536 20.4171ZM8.97734 35H0.677344V37H8.97734V35ZM1.59383 36.4001L9.84383 17.5001L8.01085 16.6999L-0.239147 35.5999L1.59383 36.4001ZM9.83132 16.6724L2.38132 0.922406L0.573372 1.77759L8.02337 17.5276L9.83132 16.6724ZM1.47734 2.35H9.17734V0.349999H1.47734V2.35ZM8.26823 1.76654L14.5682 15.5165L16.3865 14.6835L10.0865 0.933458L8.26823 1.76654ZM15.4773 16.1H17.9773V14.1H15.4773V16.1ZM18.9773 15.1V1.35H16.9773V15.1H18.9773ZM17.9773 2.35H25.2773V0.349999H17.9773V2.35ZM24.2773 1.35V15.1H26.2773V1.35H24.2773ZM25.2773 16.1H27.7273V14.1H25.2773V16.1ZM28.6339 15.522L35.034 1.77198L33.2207 0.928016L26.8207 14.678L28.6339 15.522ZM34.1273 2.35H41.7773V0.349999H34.1273V2.35ZM74.2395 1.35L75.1423 1.77993L75.8232 0.349999H74.2395V1.35ZM66.7395 17.1L65.8366 16.6701L65.6393 17.0844L65.8247 17.5041L66.7395 17.1ZM75.0895 36V37H76.6245L76.0042 35.5959L75.0895 36ZM66.5895 36L65.6727 36.3994L65.9343 37H66.5895V36ZM59.9895 20.85L60.9062 20.4506L60.6446 19.85H59.9895V20.85ZM56.9395 20.85V19.85H55.9395V20.85H56.9395ZM56.9395 36V37H57.9395V36H56.9395ZM48.9395 36H47.9395V37H48.9395V36ZM48.9395 1.35V0.349999H47.9395V1.35H48.9395ZM56.9395 1.35H57.9395V0.349999H56.9395V1.35ZM56.9395 15H55.9395V16H56.9395V15ZM60.1895 15V16H60.8251L61.0949 15.4245L60.1895 15ZM66.5895 1.35V0.349999H65.9539L65.684 0.92548L66.5895 1.35ZM73.3366 0.920066L65.8366 16.6701L67.6423 17.5299L75.1423 1.77993L73.3366 0.920066ZM65.8247 17.5041L74.1747 36.4041L76.0042 35.5959L67.6542 16.6959L65.8247 17.5041ZM75.0895 35H66.5895V37H75.0895V35ZM67.5062 35.6006L60.9062 20.4506L59.0727 21.2494L65.6727 36.3994L67.5062 35.6006ZM59.9895 19.85H56.9395V21.85H59.9895V19.85ZM55.9395 20.85V36H57.9395V20.85H55.9395ZM56.9395 35H48.9395V37H56.9395V35ZM49.9395 36V1.35H47.9395V36H49.9395ZM48.9395 2.35H56.9395V0.349999H48.9395V2.35ZM55.9395 1.35V15H57.9395V1.35H55.9395ZM56.9395 16H60.1895V14H56.9395V16ZM61.0949 15.4245L67.4949 1.77452L65.684 0.92548L59.284 14.5755L61.0949 15.4245ZM66.5895 2.35H74.2395V0.349999H66.5895V2.35ZM120.553 1.35H121.553V0.349999H120.553V1.35ZM120.553 36V37H121.553V36H120.553ZM112.503 36H111.503V37H112.503V36ZM112.503 7.5H113.503V6.5H112.503V7.5ZM103.953 7.5V6.5H102.953V7.5H103.953ZM103.953 36V37H104.953V36H103.953ZM95.9531 36H94.9531V37H95.9531V36ZM95.9531 1.35V0.349999H94.9531V1.35H95.9531ZM119.553 1.35V36H121.553V1.35H119.553ZM120.553 35H112.503V37H120.553V35ZM113.503 36V7.5H111.503V36H113.503ZM112.503 6.5H103.953V8.5H112.503V6.5ZM102.953 7.5V36H104.953V7.5H102.953ZM103.953 35H95.9531V37H103.953V35ZM96.9531 36V1.35H94.9531V36H96.9531ZM95.9531 2.35H120.553V0.349999H95.9531V2.35ZM150.082 4.2L149.456 4.97981L149.462 4.98404L150.082 4.2ZM150.182 21.45L150.832 22.21L150.833 22.2093L150.182 21.45ZM137.982 24.4V23.4H136.982V24.4H137.982ZM137.982 36V37H138.982V36H137.982ZM129.982 36H128.982V37H129.982V36ZM129.982 1.35V0.349999H128.982V1.35H129.982ZM144.132 17.25L144.84 17.9571L144.846 17.9507L144.852 17.9441L144.132 17.25ZM144.132 8.45L143.4 9.13045L143.412 9.14402L143.425 9.15711L144.132 8.45ZM137.982 7.05V6.05H136.982V7.05H137.982ZM137.982 18.6H136.982V19.6H137.982V18.6ZM139.882 2.35C144.19 2.35 147.333 3.27503 149.456 4.97979L150.708 3.4202C148.099 1.32497 144.442 0.349999 139.882 0.349999V2.35ZM149.462 4.98404C151.572 6.65437 152.682 9.13473 152.682 12.6H154.682C154.682 8.66527 153.393 5.54563 150.703 3.41595L149.462 4.98404ZM152.682 12.6C152.682 16.2927 151.586 18.9297 149.532 20.6907L150.833 22.2093C153.445 19.9703 154.682 16.7073 154.682 12.6H152.682ZM149.533 20.69C147.468 22.4555 144.543 23.4 140.632 23.4V25.4C144.855 25.4 148.297 24.3779 150.832 22.21L149.533 20.69ZM140.632 23.4H137.982V25.4H140.632V23.4ZM136.982 24.4V36H138.982V24.4H136.982ZM137.982 35H129.982V37H137.982V35ZM130.982 36V1.35H128.982V36H130.982ZM129.982 2.35H139.882V0.349999H129.982V2.35ZM139.982 19.6C141.991 19.6 143.68 19.1168 144.84 17.9571L143.425 16.5429C142.785 17.1832 141.707 17.6 139.982 17.6V19.6ZM144.852 17.9441C146.018 16.7353 146.482 14.8842 146.482 12.65H144.482C144.482 14.6824 144.047 15.898 143.413 16.5559L144.852 17.9441ZM146.482 12.65C146.482 10.6142 146.002 8.90549 144.84 7.74289L143.425 9.15711C144.063 9.7945 144.482 10.8858 144.482 12.65H146.482ZM144.865 7.76955C143.733 6.55005 142.023 6.05 139.982 6.05V8.05C141.741 8.05 142.799 8.48328 143.4 9.13045L144.865 7.76955ZM139.982 6.05H137.982V8.05H139.982V6.05ZM136.982 7.05V18.6H138.982V7.05H136.982ZM137.982 19.6H139.982V17.6H137.982V19.6ZM180.78 1.35L181.769 1.49749L181.94 0.349999H180.78V1.35ZM179.93 7.05V8.05H180.792L180.919 7.19749L179.93 7.05ZM169.18 7.05V6.05H168.18V7.05H169.18ZM169.18 15.6H168.18V16.6H169.18V15.6ZM178.58 15.6H179.58V14.6H178.58V15.6ZM178.58 21.2V22.2H179.58V21.2H178.58ZM169.18 21.2V20.2H168.18V21.2H169.18ZM169.18 30.2H168.18V31.2H169.18V30.2ZM180.68 30.2H181.68V29.2H180.68V30.2ZM180.68 36V37H181.68V36H180.68ZM161.18 36H160.18V37H161.18V36ZM161.18 1.35V0.349999H160.18V1.35H161.18ZM179.791 1.20251L178.941 6.90251L180.919 7.19749L181.769 1.49749L179.791 1.20251ZM179.93 6.05H169.18V8.05H179.93V6.05ZM168.18 7.05V15.6H170.18V7.05H168.18ZM169.18 16.6H178.58V14.6H169.18V16.6ZM177.58 15.6V21.2H179.58V15.6H177.58ZM178.58 20.2H169.18V22.2H178.58V20.2ZM168.18 21.2V30.2H170.18V21.2H168.18ZM169.18 31.2H180.68V29.2H169.18V31.2ZM179.68 30.2V36H181.68V30.2H179.68ZM180.68 35H161.18V37H180.68V35ZM162.18 36V1.35H160.18V36H162.18ZM161.18 2.35H180.78V0.349999H161.18V2.35ZM211.728 5.15L210.945 5.77265L210.949 5.77676L211.728 5.15ZM211.678 32.15L210.896 31.5263L210.892 31.5314L211.678 32.15ZM190.628 32.2L189.845 32.8227L189.849 32.8278L190.628 32.2ZM190.628 5.2L189.846 4.5763L189.842 4.58144L190.628 5.2ZM196.678 9.2L195.786 8.7465L195.78 8.7591L196.678 9.2ZM196.728 28.2L195.836 28.6535L195.84 28.6599L196.728 28.2ZM205.628 28.2L204.736 27.7465L204.733 27.7528L205.628 28.2ZM205.628 9.2L204.73 9.64095L204.736 9.65346L205.628 9.2ZM201.178 1.5C205.492 1.5 208.699 2.94928 210.945 5.77264L212.51 4.52736C209.823 1.15072 205.997 -0.500002 201.178 -0.500002V1.5ZM210.949 5.77676C213.216 8.59535 214.428 12.8339 214.428 18.65H216.428C216.428 12.5994 215.173 7.83798 212.507 4.52324L210.949 5.77676ZM214.428 18.65C214.428 24.3916 213.202 28.6359 210.896 31.5263L212.459 32.7737C215.153 29.3974 216.428 24.6417 216.428 18.65H214.428ZM210.892 31.5314C208.643 34.3889 205.452 35.85 201.178 35.85V37.85C205.97 37.85 209.78 36.1778 212.463 32.7686L210.892 31.5314ZM201.178 35.85C196.9 35.85 193.689 34.4024 191.406 31.5722L189.849 32.8278C192.567 36.1976 196.389 37.85 201.178 37.85V35.85ZM191.41 31.5774C189.139 28.7234 187.928 24.465 187.928 18.65H185.928C185.928 24.7017 187.183 29.4766 189.845 32.8226L191.41 31.5774ZM187.928 18.65C187.928 12.9408 189.137 8.71033 191.413 5.81856L189.842 4.58144C187.185 7.95634 185.928 12.6925 185.928 18.65H187.928ZM191.409 5.82368C193.693 2.96132 196.904 1.5 201.178 1.5V-0.500002C196.385 -0.500002 192.562 1.17201 189.846 4.57632L191.409 5.82368ZM201.178 5.35C200 5.35 198.925 5.62723 197.993 6.21768C197.063 6.80643 196.335 7.66869 195.786 8.74654L197.569 9.65346C197.987 8.83131 198.492 8.26856 199.063 7.90732C199.63 7.54777 200.322 7.35 201.178 7.35V5.35ZM195.78 8.7591C194.739 10.8786 194.278 14.2276 194.278 18.65H196.278C196.278 14.2724 196.75 11.3214 197.575 9.6409L195.78 8.7591ZM194.278 18.65C194.278 23.1379 194.755 26.5279 195.836 28.6535L197.619 27.7465C196.767 26.0721 196.278 23.0954 196.278 18.65H194.278ZM195.84 28.6599C196.389 29.7198 197.113 30.5675 198.033 31.1464C198.955 31.727 200.017 32 201.178 32V30C200.339 30 199.658 29.8063 199.098 29.4536C198.534 29.0992 198.034 28.5469 197.616 27.7401L195.84 28.6599ZM201.178 32C202.352 32 203.422 31.7286 204.348 31.1464C205.272 30.5651 205.989 29.7127 206.522 28.6472L204.733 27.7528C204.333 28.5539 203.842 29.1016 203.283 29.4536C202.725 29.8047 202.037 30 201.178 30V32ZM206.519 28.6535C207.6 26.5279 208.078 23.1379 208.078 18.65H206.078C206.078 23.0954 205.588 26.0721 204.736 27.7465L206.519 28.6535ZM208.078 18.65C208.078 14.2259 207.6 10.8708 206.519 8.74654L204.736 9.65346C205.589 11.3292 206.078 14.2741 206.078 18.65H208.078ZM206.525 8.7591C205.994 7.67839 205.278 6.81213 204.355 6.2204C203.428 5.62715 202.355 5.35 201.178 5.35V7.35C202.033 7.35 202.719 7.54785 203.276 7.9046C203.835 8.26287 204.328 8.8216 204.73 9.6409L206.525 8.7591ZM244.072 16.5L243.426 17.2634L243.432 17.2687L243.439 17.274L244.072 16.5ZM243.972 33.15L244.614 33.9164L244.621 33.9108L243.972 33.15ZM223.672 36H222.672V37H223.672V36ZM223.672 1.35V0.349999H222.672V1.35H223.672ZM243.672 1.35L244.663 1.48109L244.813 0.349999H243.672V1.35ZM242.872 7.4V8.4H243.748L243.863 7.53109L242.872 7.4ZM231.672 7.4V6.4H230.672V7.4H231.672ZM231.672 13.75H230.672V14.75H231.672V13.75ZM237.822 28.9L238.557 29.5783L238.563 29.5714L238.569 29.5644L237.822 28.9ZM237.772 20.65L237.024 21.3144L237.037 21.329L237.051 21.3431L237.772 20.65ZM231.672 19.3V18.3H230.672V19.3H231.672ZM231.672 30.2H230.672V31.2H231.672V30.2ZM234.722 14.75C238.653 14.75 241.504 15.6372 243.426 17.2634L244.718 15.7366C242.306 13.6962 238.925 12.75 234.722 12.75V14.75ZM243.439 17.274C245.349 18.8369 246.372 21.1999 246.372 24.55H248.372C248.372 20.7667 247.195 17.7631 244.705 15.726L243.439 17.274ZM246.372 24.55C246.372 28.1441 245.308 30.6958 243.323 32.3892L244.621 33.9108C247.169 31.7376 248.372 28.5559 248.372 24.55H246.372ZM243.329 32.3836C241.298 34.0868 238.42 35 234.572 35V37C238.724 37 242.113 36.0132 244.614 33.9164L243.329 32.3836ZM234.572 35H223.672V37H234.572V35ZM224.672 36V1.35H222.672V36H224.672ZM223.672 2.35H243.672V0.349999H223.672V2.35ZM242.681 1.21891L241.881 7.26891L243.863 7.53109L244.663 1.48109L242.681 1.21891ZM242.872 6.4H231.672V8.4H242.872V6.4ZM230.672 7.4V13.75H232.672V7.4H230.672ZM231.672 14.75H234.722V12.75H231.672V14.75ZM234.072 31.2C235.926 31.2 237.497 30.7268 238.557 29.5783L237.087 28.2217C236.547 28.8065 235.618 29.2 234.072 29.2V31.2ZM238.569 29.5644C239.606 28.3984 240.022 26.6881 240.022 24.65H238.022C238.022 26.4785 237.638 27.6016 237.074 28.2356L238.569 29.5644ZM240.022 24.65C240.022 22.7179 239.577 21.0844 238.493 19.9569L237.051 21.3431C237.634 21.9489 238.022 22.9821 238.022 24.65H240.022ZM238.519 19.9856C237.455 18.7883 235.839 18.3 233.922 18.3V20.3C235.538 20.3 236.489 20.7117 237.024 21.3144L238.519 19.9856ZM233.922 18.3H231.672V20.3H233.922V18.3ZM230.672 19.3V30.2H232.672V19.3H230.672ZM231.672 31.2H234.072V29.2H231.672V31.2ZM274.92 4.2L274.294 4.97981L274.3 4.98404L274.92 4.2ZM275.02 21.45L275.67 22.21L275.671 22.2093L275.02 21.45ZM262.82 24.4V23.4H261.82V24.4H262.82ZM262.82 36V37H263.82V36H262.82ZM254.82 36H253.82V37H254.82V36ZM254.82 1.35V0.349999H253.82V1.35H254.82ZM268.97 17.25L269.677 17.9571L269.684 17.9507L269.69 17.9441L268.97 17.25ZM268.97 8.45L268.238 9.13045L268.25 9.14402L268.263 9.15711L268.97 8.45ZM262.82 7.05V6.05H261.82V7.05H262.82ZM262.82 18.6H261.82V19.6H262.82V18.6ZM264.72 2.35C269.028 2.35 272.171 3.27503 274.294 4.97979L275.546 3.4202C272.936 1.32497 269.28 0.349999 264.72 0.349999V2.35ZM274.3 4.98404C276.409 6.65437 277.52 9.13473 277.52 12.6H279.52C279.52 8.66527 278.231 5.54563 275.541 3.41595L274.3 4.98404ZM277.52 12.6C277.52 16.2927 276.424 18.9297 274.37 20.6907L275.671 22.2093C278.283 19.9703 279.52 16.7073 279.52 12.6H277.52ZM274.37 20.69C272.306 22.4555 269.381 23.4 265.47 23.4V25.4C269.693 25.4 273.135 24.3779 275.67 22.21L274.37 20.69ZM265.47 23.4H262.82V25.4H265.47V23.4ZM261.82 24.4V36H263.82V24.4H261.82ZM262.82 35H254.82V37H262.82V35ZM255.82 36V1.35H253.82V36H255.82ZM254.82 2.35H264.72V0.349999H254.82V2.35ZM264.82 19.6C266.829 19.6 268.518 19.1168 269.677 17.9571L268.263 16.5429C267.623 17.1832 266.545 17.6 264.82 17.6V19.6ZM269.69 17.9441C270.856 16.7353 271.32 14.8842 271.32 12.65H269.32C269.32 14.6824 268.885 15.898 268.25 16.5559L269.69 17.9441ZM271.32 12.65C271.32 10.6142 270.84 8.90549 269.677 7.74289L268.263 9.15711C268.901 9.7945 269.32 10.8858 269.32 12.65H271.32ZM269.703 7.76955C268.571 6.55005 266.861 6.05 264.82 6.05V8.05C266.579 8.05 267.637 8.48328 268.238 9.13045L269.703 7.76955ZM264.82 6.05H262.82V8.05H264.82V6.05ZM261.82 7.05V18.6H263.82V7.05H261.82ZM262.82 19.6H264.82V17.6H262.82V19.6ZM299.739 36L298.759 36.2011L298.923 37H299.739V36ZM298.189 28.45L299.169 28.2489L299.005 27.45H298.189V28.45ZM289.389 28.45V27.45H288.574L288.409 28.2489L289.389 28.45ZM287.839 36V37H288.655L288.819 36.2011L287.839 36ZM279.739 36L278.774 35.7395L278.433 37H279.739V36ZM289.089 1.35V0.349999H288.323L288.124 1.08948L289.089 1.35ZM298.689 1.35L299.655 1.09078L299.456 0.349999H298.689V1.35ZM307.989 36V37H309.293L308.955 35.7408L307.989 36ZM290.589 22.7L289.61 22.4978L289.362 23.7H290.589V22.7ZM296.989 22.7V23.7H298.217L297.968 22.4978L296.989 22.7ZM293.789 7.2L294.768 6.99781H292.81L293.789 7.2ZM300.719 35.7989L299.169 28.2489L297.21 28.6511L298.759 36.2011L300.719 35.7989ZM298.189 27.45H289.389V29.45H298.189V27.45ZM288.409 28.2489L286.859 35.7989L288.819 36.2011L290.369 28.6511L288.409 28.2489ZM287.839 35H279.739V37H287.839V35ZM280.705 36.2605L290.055 1.61052L288.124 1.08948L278.774 35.7395L280.705 36.2605ZM289.089 2.35H298.689V0.349999H289.089V2.35ZM297.723 1.60922L307.023 36.2592L308.955 35.7408L299.655 1.09078L297.723 1.60922ZM307.989 35H299.739V37H307.989V35ZM290.589 23.7H296.989V21.7H290.589V23.7ZM297.968 22.4978L294.768 6.99781L292.81 7.40219L296.01 22.9022L297.968 22.4978ZM292.81 6.99781L289.61 22.4978L291.568 22.9022L294.768 7.40219L292.81 6.99781ZM352.188 1.35L353.09 1.77993L353.771 0.349999H352.188V1.35ZM344.688 17.1L343.785 16.6701L343.588 17.0832L343.772 17.5021L344.688 17.1ZM352.987 36V37H354.519L353.903 35.5979L352.987 36ZM344.487 36L343.562 36.3777L343.815 37H344.487V36ZM338.288 20.8L339.213 20.4223L338.96 19.8H338.288V20.8ZM335.688 20.8V19.8H334.688V20.8H335.688ZM335.688 36V37H336.688V36H335.688ZM328.388 36H327.388V37H328.388V36ZM328.388 20.8H329.388V19.8H328.388V20.8ZM325.688 20.8V19.8H325.019L324.764 20.4171L325.688 20.8ZM319.388 36V37H320.056L320.311 36.3829L319.388 36ZM311.087 36L310.171 35.5999L309.56 37H311.087V36ZM319.337 17.1L320.254 17.5001L320.436 17.0834L320.241 16.6724L319.337 17.1ZM311.888 1.35V0.349999H310.308L310.984 1.77759L311.888 1.35ZM319.587 1.35L320.497 0.933458L320.229 0.349999H319.587V1.35ZM325.888 15.1L324.978 15.5165L325.246 16.1H325.888V15.1ZM328.388 15.1V16.1H329.388V15.1H328.388ZM328.388 1.35V0.349999H327.388V1.35H328.388ZM335.688 1.35H336.688V0.349999H335.688V1.35ZM335.688 15.1H334.688V16.1H335.688V15.1ZM338.138 15.1V16.1H338.775L339.044 15.522L338.138 15.1ZM344.538 1.35V0.349999H343.9L343.631 0.928016L344.538 1.35ZM351.285 0.920066L343.785 16.6701L345.59 17.5299L353.09 1.77993L351.285 0.920066ZM343.772 17.5021L352.072 36.4021L353.903 35.5979L345.603 16.6979L343.772 17.5021ZM352.987 35H344.487V37H352.987V35ZM345.413 35.6223L339.213 20.4223L337.362 21.1777L343.562 36.3777L345.413 35.6223ZM338.288 19.8H335.688V21.8H338.288V19.8ZM334.688 20.8V36H336.688V20.8H334.688ZM335.688 35H328.388V37H335.688V35ZM329.388 36V20.8H327.388V36H329.388ZM328.388 19.8H325.688V21.8H328.388V19.8ZM324.764 20.4171L318.464 35.6171L320.311 36.3829L326.611 21.1829L324.764 20.4171ZM319.388 35H311.087V37H319.388V35ZM312.004 36.4001L320.254 17.5001L318.421 16.6999L310.171 35.5999L312.004 36.4001ZM320.241 16.6724L312.791 0.922406L310.984 1.77759L318.434 17.5276L320.241 16.6724ZM311.888 2.35H319.587V0.349999H311.888V2.35ZM318.678 1.76654L324.978 15.5165L326.797 14.6835L320.497 0.933458L318.678 1.76654ZM325.888 16.1H328.388V14.1H325.888V16.1ZM329.388 15.1V1.35H327.388V15.1H329.388ZM328.388 2.35H335.688V0.349999H328.388V2.35ZM334.688 1.35V15.1H336.688V1.35H334.688ZM335.688 16.1H338.138V14.1H335.688V16.1ZM339.044 15.522L345.444 1.77198L343.631 0.928016L337.231 14.678L339.044 15.522ZM344.538 2.35H352.188V0.349999H344.538V2.35ZM378.95 1.35L379.939 1.49749L380.11 0.349999H378.95V1.35ZM378.1 7.05V8.05H378.962L379.089 7.19749L378.1 7.05ZM367.35 7.05V6.05H366.35V7.05H367.35ZM367.35 15.6H366.35V16.6H367.35V15.6ZM376.75 15.6H377.75V14.6H376.75V15.6ZM376.75 21.2V22.2H377.75V21.2H376.75ZM367.35 21.2V20.2H366.35V21.2H367.35ZM367.35 30.2H366.35V31.2H367.35V30.2ZM378.85 30.2H379.85V29.2H378.85V30.2ZM378.85 36V37H379.85V36H378.85ZM359.35 36H358.35V37H359.35V36ZM359.35 1.35V0.349999H358.35V1.35H359.35ZM377.961 1.20251L377.111 6.90251L379.089 7.19749L379.939 1.49749L377.961 1.20251ZM378.1 6.05H367.35V8.05H378.1V6.05ZM366.35 7.05V15.6H368.35V7.05H366.35ZM367.35 16.6H376.75V14.6H367.35V16.6ZM375.75 15.6V21.2H377.75V15.6H375.75ZM376.75 20.2H367.35V22.2H376.75V20.2ZM366.35 21.2V30.2H368.35V21.2H366.35ZM367.35 31.2H378.85V29.2H367.35V31.2ZM377.85 30.2V36H379.85V30.2H377.85ZM378.85 35H359.35V37H378.85V35ZM360.35 36V1.35H358.35V36H360.35ZM359.35 2.35H378.95V0.349999H359.35V2.35ZM403.681 36H402.681V37H403.681V36ZM403.681 21.1H404.681V20.1H403.681V21.1ZM395.031 21.1V20.1H394.031V21.1H395.031ZM395.031 36V37H396.031V36H395.031ZM387.031 36H386.031V37H387.031V36ZM387.031 1.35V0.349999H386.031V1.35H387.031ZM395.031 1.35H396.031V0.349999H395.031V1.35ZM395.031 14.85H394.031V15.85H395.031V14.85ZM403.681 14.85V15.85H404.681V14.85H403.681ZM403.681 1.35V0.349999H402.681V1.35H403.681ZM411.681 1.35H412.681V0.349999H411.681V1.35ZM411.681 36V37H412.681V36H411.681ZM404.681 36V21.1H402.681V36H404.681ZM403.681 20.1H395.031V22.1H403.681V20.1ZM394.031 21.1V36H396.031V21.1H394.031ZM395.031 35H387.031V37H395.031V35ZM388.031 36V1.35H386.031V36H388.031ZM387.031 2.35H395.031V0.349999H387.031V2.35ZM394.031 1.35V14.85H396.031V1.35H394.031ZM395.031 15.85H403.681V13.85H395.031V15.85ZM404.681 14.85V1.35H402.681V14.85H404.681ZM403.681 2.35H411.681V0.349999H403.681V2.35ZM410.681 1.35V36H412.681V1.35H410.681ZM411.681 35H403.681V37H411.681V35ZM445.559 36V37H446.559V36H445.559ZM437.909 36H436.909V37H437.909V36ZM438.909 9.25L439.899 9.39549L437.954 8.95366L438.909 9.25ZM430.609 36V37H431.346L431.564 36.2963L430.609 36ZM421.109 36H420.109V37H421.109V36ZM421.109 1.35V0.349999H420.109V1.35H421.109ZM428.709 1.35H429.709V0.349999H428.709V1.35ZM428.459 21.8L427.463 21.717L428.459 21.8ZM427.759 28.1L426.769 27.9649L428.713 28.3996L427.759 28.1ZM436.159 1.35V0.349999H435.425L435.205 1.0504L436.159 1.35ZM445.559 1.35H446.559V0.349999H445.559V1.35ZM445.559 35H437.909V37H445.559V35ZM438.909 36V22.8H436.909V36H438.909ZM438.909 22.8C438.909 18.3496 439.239 13.8815 439.899 9.39549L437.92 9.10451C437.246 13.6851 436.909 18.2504 436.909 22.8H438.909ZM437.954 8.95366L429.654 35.7037L431.564 36.2963L439.864 9.54634L437.954 8.95366ZM430.609 35H421.109V37H430.609V35ZM422.109 36V1.35H420.109V36H422.109ZM421.109 2.35H428.709V0.349999H421.109V2.35ZM427.709 1.35V14.75H429.709V1.35H427.709ZM427.709 14.75C427.709 17.4311 427.627 19.7521 427.463 21.717L429.456 21.883C429.626 19.8479 429.709 17.4689 429.709 14.75H427.709ZM427.463 21.717C427.298 23.6978 427.066 25.7804 426.769 27.9649L428.75 28.2351C429.052 26.0196 429.288 23.9022 429.456 21.883L427.463 21.717ZM428.713 28.3996L437.113 1.64959L435.205 1.0504L426.805 27.8004L428.713 28.3996ZM436.159 2.35H445.559V0.349999H436.159V2.35ZM444.559 1.35V36H446.559V1.35H444.559ZM474.641 1.35L475.63 1.49749L475.801 0.349999H474.641V1.35ZM473.791 7.05V8.05H474.653L474.78 7.19749L473.791 7.05ZM463.041 7.05V6.05H462.041V7.05H463.041ZM463.041 15.6H462.041V16.6H463.041V15.6ZM472.441 15.6H473.441V14.6H472.441V15.6ZM472.441 21.2V22.2H473.441V21.2H472.441ZM463.041 21.2V20.2H462.041V21.2H463.041ZM463.041 30.2H462.041V31.2H463.041V30.2ZM474.541 30.2H475.541V29.2H474.541V30.2ZM474.541 36V37H475.541V36H474.541ZM455.041 36H454.041V37H455.041V36ZM455.041 1.35V0.349999H454.041V1.35H455.041ZM473.652 1.20251L472.802 6.90251L474.78 7.19749L475.63 1.49749L473.652 1.20251ZM473.791 6.05H463.041V8.05H473.791V6.05ZM462.041 7.05V15.6H464.041V7.05H462.041ZM463.041 16.6H472.441V14.6H463.041V16.6ZM471.441 15.6V21.2H473.441V15.6H471.441ZM472.441 20.2H463.041V22.2H472.441V20.2ZM462.041 21.2V30.2H464.041V21.2H462.041ZM463.041 31.2H474.541V29.2H463.041V31.2ZM473.541 30.2V36H475.541V30.2H473.541ZM474.541 35H455.041V37H474.541V35ZM456.041 36V1.35H454.041V36H456.041ZM455.041 2.35H474.641V0.349999H455.041V2.35Z" fill="#125766" mask="url(#path-1-outside-1_2343_104)"/>
</svg>