<svg width="974" height="75" viewBox="0 0 974 75" fill="none" xmlns="http://www.w3.org/2000/svg">
<mask id="path-1-outside-1_2337_16811" maskUnits="userSpaceOnUse" x="-0.400391" y="0.199219" width="974" height="75" fill="black">
<rect fill="white" x="-0.400391" y="0.199219" width="974" height="75"/>
<path d="M81.3996 2.79922L66.1996 34.4992L82.9996 71.9992H67.5996L54.5996 41.0992H48.8996V71.9992H35.6996V41.0992H29.7996L16.6996 71.9992H1.59961L18.3996 34.4992L3.19961 2.79922H17.2996L30.1996 30.5992H35.6996V2.79922H48.8996V30.5992H54.3996L67.4996 2.79922H81.3996ZM147.368 2.79922L131.868 34.4992L149.068 71.9992H133.568L119.768 41.2992H113.068V71.9992H98.6684V2.79922H113.068V30.4992H120.068L133.468 2.79922H147.368ZM244.398 2.79922V71.9992H229.998V14.0992H210.998V71.9992H196.598V2.79922H244.398ZM285.554 2.79922C294.288 2.79922 300.988 4.66588 305.654 8.39922C310.321 12.1325 312.654 17.6659 312.654 24.9992C312.654 32.7326 310.354 38.5659 305.754 42.4992C301.154 46.3659 294.821 48.2992 286.754 48.2992H281.154V71.9992H266.754V2.79922H285.554ZM285.754 37.6992C289.821 37.6992 292.854 36.7325 294.854 34.7992C296.854 32.8659 297.854 29.6326 297.854 25.0992C297.854 21.0326 296.854 18.0325 294.854 16.0992C292.854 14.1659 289.788 13.1992 285.654 13.1992H281.154V37.6992H285.754ZM368.661 2.79922L367.161 13.2992H345.061V31.5992H364.361V41.9992H345.061V61.3992H368.661V71.9992H330.661V2.79922H368.661ZM412.152 1.19922C421.019 1.19922 427.885 4.29922 432.752 10.4992C437.619 16.6326 440.052 25.5992 440.052 37.3992C440.052 49.0659 437.619 58.0326 432.752 64.2992C427.885 70.4992 421.019 73.5992 412.152 73.5992C403.285 73.5992 396.385 70.5326 391.452 64.3992C386.585 58.1992 384.152 49.1992 384.152 37.3992C384.152 25.7325 386.585 16.7992 391.452 10.5992C396.385 4.33255 403.285 1.19922 412.152 1.19922ZM412.152 11.9992C407.752 11.9992 404.485 13.9659 402.352 17.8992C400.219 21.8326 399.152 28.3325 399.152 37.3992C399.152 46.5326 400.219 53.0659 402.352 56.9992C404.552 60.8659 407.819 62.7992 412.152 62.7992C416.552 62.7992 419.785 60.8659 421.852 56.9992C423.985 53.0659 425.052 46.5326 425.052 37.3992C425.052 28.3325 423.985 21.8326 421.852 17.8992C419.785 13.9659 416.552 11.9992 412.152 11.9992ZM480.643 27.7992C488.643 27.7992 494.809 29.5992 499.143 33.1992C503.476 36.7992 505.643 42.1659 505.643 49.2992C505.643 56.8992 503.376 62.5992 498.843 66.3992C494.376 70.1325 488.209 71.9992 480.343 71.9992H459.743V2.79922H498.443L496.943 13.8992H474.143V27.7992H480.643ZM479.743 61.2992C483.409 61.2992 486.109 60.3992 487.843 58.5992C489.643 56.7326 490.543 53.6992 490.543 49.4992C490.543 45.5659 489.643 42.6992 487.843 40.8992C486.109 39.0326 483.309 38.0992 479.443 38.0992H474.143V61.2992H479.743ZM542.449 2.79922C551.182 2.79922 557.882 4.66588 562.549 8.39922C567.216 12.1325 569.549 17.6659 569.549 24.9992C569.549 32.7326 567.249 38.5659 562.649 42.4992C558.049 46.3659 551.715 48.2992 543.649 48.2992H538.049V71.9992H523.649V2.79922H542.449ZM542.649 37.6992C546.715 37.6992 549.749 36.7325 551.749 34.7992C553.749 32.8659 554.749 29.6326 554.749 25.0992C554.749 21.0326 553.749 18.0325 551.749 16.0992C549.749 14.1659 546.682 13.1992 542.549 13.1992H538.049V37.6992H542.649ZM615.098 71.9992L611.698 56.3992H592.698L589.298 71.9992H574.698L593.698 2.79922H611.098L629.998 71.9992H615.098ZM595.098 45.7992H609.298L602.198 13.4992L595.098 45.7992ZM718.704 2.79922L703.504 34.4992L720.304 71.9992H704.904L691.904 41.0992H686.204V71.9992H673.004V41.0992H667.104L654.004 71.9992H638.904L655.704 34.4992L640.504 2.79922H654.604L667.504 30.5992H673.004V2.79922H686.204V30.5992H691.704L704.804 2.79922H718.704ZM773.973 2.79922L772.473 13.2992H750.373V31.5992H769.673V41.9992H750.373V61.3992H773.973V71.9992H735.973V2.79922H773.973ZM827.034 71.9992V41.5992H807.834V71.9992H793.434V2.79922H807.834V30.1992H827.034V2.79922H841.434V71.9992H827.034ZM911.586 71.9992H897.686V43.8992C897.686 35.7659 898.286 26.8992 899.486 17.2992L881.086 71.9992H863.786V2.79922H877.686V31.2992C877.686 36.6326 877.519 41.2326 877.186 45.0992C876.919 48.8992 876.486 53.0326 875.886 57.4992L894.386 2.79922H911.586V71.9992ZM971.942 2.79922L970.442 13.2992H948.342V31.5992H967.642V41.9992H948.342V61.3992H971.942V71.9992H933.942V2.79922H971.942Z"/>
</mask>
<path d="M81.3996 2.79922L66.1996 34.4992L82.9996 71.9992H67.5996L54.5996 41.0992H48.8996V71.9992H35.6996V41.0992H29.7996L16.6996 71.9992H1.59961L18.3996 34.4992L3.19961 2.79922H17.2996L30.1996 30.5992H35.6996V2.79922H48.8996V30.5992H54.3996L67.4996 2.79922H81.3996ZM147.368 2.79922L131.868 34.4992L149.068 71.9992H133.568L119.768 41.2992H113.068V71.9992H98.6684V2.79922H113.068V30.4992H120.068L133.468 2.79922H147.368ZM244.398 2.79922V71.9992H229.998V14.0992H210.998V71.9992H196.598V2.79922H244.398ZM285.554 2.79922C294.288 2.79922 300.988 4.66588 305.654 8.39922C310.321 12.1325 312.654 17.6659 312.654 24.9992C312.654 32.7326 310.354 38.5659 305.754 42.4992C301.154 46.3659 294.821 48.2992 286.754 48.2992H281.154V71.9992H266.754V2.79922H285.554ZM285.754 37.6992C289.821 37.6992 292.854 36.7325 294.854 34.7992C296.854 32.8659 297.854 29.6326 297.854 25.0992C297.854 21.0326 296.854 18.0325 294.854 16.0992C292.854 14.1659 289.788 13.1992 285.654 13.1992H281.154V37.6992H285.754ZM368.661 2.79922L367.161 13.2992H345.061V31.5992H364.361V41.9992H345.061V61.3992H368.661V71.9992H330.661V2.79922H368.661ZM412.152 1.19922C421.019 1.19922 427.885 4.29922 432.752 10.4992C437.619 16.6326 440.052 25.5992 440.052 37.3992C440.052 49.0659 437.619 58.0326 432.752 64.2992C427.885 70.4992 421.019 73.5992 412.152 73.5992C403.285 73.5992 396.385 70.5326 391.452 64.3992C386.585 58.1992 384.152 49.1992 384.152 37.3992C384.152 25.7325 386.585 16.7992 391.452 10.5992C396.385 4.33255 403.285 1.19922 412.152 1.19922ZM412.152 11.9992C407.752 11.9992 404.485 13.9659 402.352 17.8992C400.219 21.8326 399.152 28.3325 399.152 37.3992C399.152 46.5326 400.219 53.0659 402.352 56.9992C404.552 60.8659 407.819 62.7992 412.152 62.7992C416.552 62.7992 419.785 60.8659 421.852 56.9992C423.985 53.0659 425.052 46.5326 425.052 37.3992C425.052 28.3325 423.985 21.8326 421.852 17.8992C419.785 13.9659 416.552 11.9992 412.152 11.9992ZM480.643 27.7992C488.643 27.7992 494.809 29.5992 499.143 33.1992C503.476 36.7992 505.643 42.1659 505.643 49.2992C505.643 56.8992 503.376 62.5992 498.843 66.3992C494.376 70.1325 488.209 71.9992 480.343 71.9992H459.743V2.79922H498.443L496.943 13.8992H474.143V27.7992H480.643ZM479.743 61.2992C483.409 61.2992 486.109 60.3992 487.843 58.5992C489.643 56.7326 490.543 53.6992 490.543 49.4992C490.543 45.5659 489.643 42.6992 487.843 40.8992C486.109 39.0326 483.309 38.0992 479.443 38.0992H474.143V61.2992H479.743ZM542.449 2.79922C551.182 2.79922 557.882 4.66588 562.549 8.39922C567.216 12.1325 569.549 17.6659 569.549 24.9992C569.549 32.7326 567.249 38.5659 562.649 42.4992C558.049 46.3659 551.715 48.2992 543.649 48.2992H538.049V71.9992H523.649V2.79922H542.449ZM542.649 37.6992C546.715 37.6992 549.749 36.7325 551.749 34.7992C553.749 32.8659 554.749 29.6326 554.749 25.0992C554.749 21.0326 553.749 18.0325 551.749 16.0992C549.749 14.1659 546.682 13.1992 542.549 13.1992H538.049V37.6992H542.649ZM615.098 71.9992L611.698 56.3992H592.698L589.298 71.9992H574.698L593.698 2.79922H611.098L629.998 71.9992H615.098ZM595.098 45.7992H609.298L602.198 13.4992L595.098 45.7992ZM718.704 2.79922L703.504 34.4992L720.304 71.9992H704.904L691.904 41.0992H686.204V71.9992H673.004V41.0992H667.104L654.004 71.9992H638.904L655.704 34.4992L640.504 2.79922H654.604L667.504 30.5992H673.004V2.79922H686.204V30.5992H691.704L704.804 2.79922H718.704ZM773.973 2.79922L772.473 13.2992H750.373V31.5992H769.673V41.9992H750.373V61.3992H773.973V71.9992H735.973V2.79922H773.973ZM827.034 71.9992V41.5992H807.834V71.9992H793.434V2.79922H807.834V30.1992H827.034V2.79922H841.434V71.9992H827.034ZM911.586 71.9992H897.686V43.8992C897.686 35.7659 898.286 26.8992 899.486 17.2992L881.086 71.9992H863.786V2.79922H877.686V31.2992C877.686 36.6326 877.519 41.2326 877.186 45.0992C876.919 48.8992 876.486 53.0326 875.886 57.4992L894.386 2.79922H911.586V71.9992ZM971.942 2.79922L970.442 13.2992H948.342V31.5992H967.642V41.9992H948.342V61.3992H971.942V71.9992H933.942V2.79922H971.942Z" stroke="white" stroke-width="2" mask="url(#path-1-outside-1_2337_16811)"/>
</svg>
