<svg xmlns="http://www.w3.org/2000/svg" width="80" height="80" viewBox="0 0 80 80" fill="none">
<path d="M41.5194 38.8768C40.801 36.205 36.4354 35.7069 35.4122 38.4444C34.3937 41.1638 37.5041 43.7101 40.0313 42.3132C41.2283 41.6507 41.8683 40.1728 41.5194 38.8768Z" fill="#2A9D90"/>
<path d="M6.07561 58.9054C6.46189 58.7228 6.8384 58.518 7.22233 58.3297V72.0497C7.22233 72.5035 7.59048 72.8716 8.04425 72.8716H9.60581C14.5411 74.0928 31.0551 73.9897 33.9585 73.9746C46.5113 73.9095 56.7808 75.4567 68.2981 75.2054C69.019 75.1897 69.1612 74.178 68.4746 73.9577C66.0143 73.1681 63.426 72.733 60.7929 72.4789C64.3112 71.4308 67.2443 70.0181 71.2147 67.8609C71.4605 67.7272 71.7905 67.2026 71.8092 66.9256C72.2202 60.7778 72.3498 54.5385 72.1967 48.379C72.9154 48.3528 73.2443 47.4725 72.7285 46.9748C68.9433 43.3142 69.2094 43.1439 60.0587 33.7892C66.5722 29.4037 74.6276 25.336 75.0851 16.4234C75.3844 10.5956 71.2674 4.70716 64.8035 5.1381C63.3555 5.09228 61.8714 5.38927 60.5186 6.02229C59.9813 6.27379 59.466 6.7115 58.9678 7.13424C57.3374 8.51685 57.3591 8.36185 56.3394 7.38359C54.0919 5.22335 50.2692 4.20402 46.9023 5.07837V5.0773C42.7227 6.15928 39.4179 10.0666 39.0449 14.3678C38.7175 18.1398 40.7077 21.5001 42.9351 24.1403C42.1502 23.9805 41.3972 23.8165 40.6898 23.6336C40.3162 23.5411 39.951 23.7235 39.7754 24.0456C39.4631 24.1689 40.0735 23.6863 29.6318 34.0898L29.5871 29.088C29.6882 29.108 29.7841 29.1225 29.8866 29.1441C30.3265 29.2404 30.7658 28.9547 30.8605 28.5105C30.9541 28.0664 30.67 27.6297 30.2259 27.5366C26.9002 26.8335 24.2734 26.8988 21.7049 27.7475C20.8221 28.0388 21.0322 29.3496 21.9623 29.3496C22.0956 29.3496 22.1902 29.3212 22.3911 29.2582L22.4808 41.0919C22.4811 41.1356 22.4996 41.1732 22.5065 41.2151L16.1013 47.6201C15.8653 47.8556 15.7952 48.2109 15.9242 48.5191C16.0526 48.8241 16.3512 49.0232 16.6824 49.0232H16.6894L19.5837 48.9983C15.1033 52.2506 9.93063 55.264 5.37248 57.42C4.39122 57.8831 5.08974 59.3705 6.07561 58.9054ZM23.2636 48.9668C49.1622 50.7559 -0.375646 47.3365 57.7387 51.3477L57.8463 71.2717C54.526 71.3368 44.0861 71.2568 43.9705 71.2556V56.8742C43.9705 56.4204 43.6024 56.0523 43.1486 56.0523H33.0694C32.6156 56.0523 32.2475 56.4204 32.2475 56.8742V71.2598C28.256 71.2705 25.3139 71.3254 21.3143 71.2674V48.9835L23.2636 48.9668ZM42.3267 68.3322C39.5234 69.0395 36.2621 70.2971 33.8913 71.8036V57.6961H42.3267V68.3322ZM19.6704 71.2278H8.86617V61.0309H19.6704V71.2278ZM19.6704 59.387H8.86617V57.5045C12.615 55.57 16.2326 53.3705 19.6704 50.9373V59.387ZM70.553 48.35C70.7046 54.3937 70.5787 60.5134 70.1834 66.5486C66.128 68.7442 63.1818 70.1408 59.4894 71.1483L59.3681 48.6569C68.4769 48.5159 67.5755 48.3312 70.553 48.35ZM70.1215 46.7051C67.3956 46.7155 65.33 46.9827 62.8778 46.9287L42.0296 25.628C42.2719 25.6796 44.5146 26.1562 44.7724 26.1392C48.2171 29.6148 51.6805 31.9203 55.5892 34.9863C55.7583 35.1182 55.9401 35.1722 56.1807 35.1474C56.1897 35.1532 56.2034 35.1618 56.2114 35.167C56.9144 35.167 57.3059 35.215 58.009 35.215C58.2339 35.0512 58.4613 34.8969 58.6874 34.7372C64.1706 40.3432 70.1094 46.6928 70.1215 46.7051ZM40.6823 14.509C40.9975 10.8789 43.7864 7.58158 47.3144 6.66977V6.6687C50.1131 5.94858 53.3316 6.77989 55.2007 8.56831C56.8139 10.1204 57.642 10.4174 60.0316 8.38745C64.1531 4.88654 70.6916 7.36719 72.3513 12.9187C73.239 15.8864 72.545 19.3389 70.54 21.9288C68.9605 23.9673 67.7135 24.7198 56.1088 33.3072C55.2687 32.6554 54.4414 32.0294 53.6275 31.414C48.2827 27.3717 40.1064 21.145 40.6823 14.509ZM24.0318 28.8655C25.2457 28.6671 26.5246 28.6555 27.9407 28.8235C28.0616 35.3651 27.8634 35.1476 28.1511 35.5707L24.1135 39.6081C24.1126 39.4938 24.0309 28.7547 24.0318 28.8655ZM40.0701 25.9763L60.6491 47.0015L18.6837 47.3622L40.0701 25.9763Z" fill="#2A9D90"/>
<path d="M12.2245 67.6933H16.1101C16.5652 67.6933 16.9342 67.3243 16.9342 66.8691V65.1346C16.9342 64.6795 16.5652 64.3105 16.1101 64.3105H12.2245C11.7694 64.3105 11.4004 64.6795 11.4004 65.1346V66.8691C11.4004 67.3243 11.7694 67.6933 12.2245 67.6933Z" fill="#2A9D90"/>
<path d="M65.6768 11.2521C66.7117 11.6716 67.3565 12.9419 67.0841 14.025C66.8199 15.0792 68.4122 15.4882 68.6787 14.4252C69.4619 11.307 65.9055 8.50221 65.2247 10.1808C65.054 10.6014 65.2562 11.0808 65.6768 11.2521Z" fill="#2A9D90"/>
<path d="M65.5547 18.2864C65.3465 18.6899 65.5044 19.1864 65.9078 19.3941L66.2005 19.5428L66.894 18.052L66.6623 17.9343C66.2615 17.7245 65.7639 17.884 65.5547 18.2864Z" fill="#2A9D90"/>
</svg>