<svg xmlns="http://www.w3.org/2000/svg" width="1840" height="167" viewBox="0 0 1840 167" fill="none">
<g opacity="0.12">
<mask id="path-1-inside-1_2343_396" fill="white">
<path d="M179.178 4.06999L143.758 77.21L182.858 163H150.888L119.838 91.01H105.578V163H77.9778V91.01H63.7178L32.2078 163H0.697837L40.0278 77.21L4.60784 4.06999H34.0478L64.4078 68.7H77.9778V4.06999H105.578V68.7H119.378L150.198 4.06999H179.178ZM301.558 4.06999L264.988 77.21L305.468 163H273.268L239.918 91.24H223.588V163H193.688V4.06999H223.588V68.47H240.378L272.348 4.06999H301.558ZM474.832 4.06999V163H444.932V27.76H397.552V163H367.652V4.06999H474.832ZM543.031 4.06999C562.811 4.06999 577.914 8.36332 588.341 16.95C598.921 25.3833 604.211 37.9567 604.211 54.67C604.211 72.15 598.921 85.3367 588.341 94.23C577.914 102.97 563.501 107.34 545.101 107.34H531.761V163H501.861V4.06999H543.031ZM543.261 85.03C553.534 85.03 561.124 82.8067 566.031 78.36C570.937 73.76 573.391 65.8633 573.391 54.67C573.391 44.7033 570.937 37.42 566.031 32.82C561.124 28.22 553.534 25.92 543.261 25.92H531.761V85.03H543.261ZM704.992 4.06999L701.772 26.15H650.022V71.23H695.332V93.08H650.022V140.69H705.452V163H620.122V4.06999H704.992ZM778.337 0.619993C798.27 0.619993 813.833 7.67333 825.027 21.78C836.22 35.7333 841.817 56.28 841.817 83.42C841.817 110.253 836.22 130.8 825.027 145.06C813.833 159.32 798.27 166.45 778.337 166.45C758.557 166.45 743.07 159.397 731.877 145.29C720.683 131.183 715.087 110.637 715.087 83.65C715.087 56.97 720.683 36.5 731.877 22.24C743.07 7.82666 758.557 0.619993 778.337 0.619993ZM778.337 23.39C767.757 23.39 759.783 28.0667 754.417 37.42C749.05 46.7733 746.367 62.1833 746.367 83.65C746.367 104.963 749.05 120.297 754.417 129.65C759.937 139.003 767.91 143.68 778.337 143.68C789.223 143.68 797.273 139.08 802.487 129.88C807.853 120.527 810.537 105.04 810.537 83.42C810.537 62.1067 807.853 46.7733 802.487 37.42C797.273 28.0667 789.223 23.39 778.337 23.39ZM907.581 62.26C925.674 62.26 939.627 66.4 949.441 74.68C959.254 82.8067 964.161 94.9967 964.161 111.25C964.161 128.73 959.024 141.763 948.751 150.35C938.631 158.783 924.524 163 906.431 163H861.811V4.06999H948.061L944.841 27.3H891.711V62.26H907.581ZM905.741 140.69C914.941 140.69 921.764 138.543 926.211 134.25C930.657 129.803 932.881 122.29 932.881 111.71C932.881 102.05 930.581 94.9967 925.981 90.55C921.534 86.1033 914.634 83.88 905.281 83.88H891.711V140.69H905.741ZM1021.47 4.06999C1041.25 4.06999 1056.35 8.36332 1066.78 16.95C1077.36 25.3833 1082.65 37.9567 1082.65 54.67C1082.65 72.15 1077.36 85.3367 1066.78 94.23C1056.35 102.97 1041.94 107.34 1023.54 107.34H1010.2V163H980.297V4.06999H1021.47ZM1021.7 85.03C1031.97 85.03 1039.56 82.8067 1044.47 78.36C1049.37 73.76 1051.83 65.8633 1051.83 54.67C1051.83 44.7033 1049.37 37.42 1044.47 32.82C1039.56 28.22 1031.97 25.92 1021.7 25.92H1010.2V85.03H1021.7ZM1161.91 163L1153.17 125.97H1107.17L1098.43 163H1068.3L1112.46 4.06999H1148.8L1192.73 163H1161.91ZM1112.23 103.43H1148.11L1130.17 26.84L1112.23 103.43ZM1365.49 4.06999L1330.07 77.21L1369.17 163H1337.2L1306.15 91.01H1291.89V163H1264.29V91.01H1250.03L1218.52 163H1187.01L1226.34 77.21L1190.92 4.06999H1220.36L1250.72 68.7H1264.29V4.06999H1291.89V68.7H1305.69L1336.51 4.06999H1365.49ZM1464.87 4.06999L1461.65 26.15H1409.9V71.23H1455.21V93.08H1409.9V140.69H1465.33V163H1380V4.06999H1464.87ZM1562.53 163V91.7H1514.69V163H1484.79V4.06999H1514.69V68.01H1562.53V4.06999H1592.43V163H1562.53ZM1727.08 163H1698.1V94.69C1698.1 74.1433 1699.4 54.1333 1702.01 34.66L1656.01 163H1619.67V4.06999H1648.65V73.07C1648.65 85.3367 1648.27 95.61 1647.5 103.89C1646.89 112.17 1645.97 121.677 1644.74 132.41L1691.2 4.06999H1727.08V163ZM1839.2 4.06999L1835.98 26.15H1784.23V71.23H1829.54V93.08H1784.23V140.69H1839.66V163H1754.33V4.06999H1839.2Z"/>
</mask>
<path d="M179.178 4.06999L179.875 4.40752L180.413 3.29558H179.178V4.06999ZM143.758 77.21L143.061 76.8725L142.902 77.2L143.053 77.5312L143.758 77.21ZM182.858 163V163.774H184.062L183.563 162.679L182.858 163ZM150.888 163L150.177 163.307L150.378 163.774H150.888V163ZM119.838 91.01L120.549 90.7033L120.347 90.2356H119.838V91.01ZM105.578 91.01V90.2356H104.803V91.01H105.578ZM105.578 163V163.774H106.352V163H105.578ZM77.9778 163H77.2034V163.774H77.9778V163ZM77.9778 91.01H78.7523V90.2356H77.9778V91.01ZM63.7178 91.01V90.2356H63.2115L63.0084 90.6995L63.7178 91.01ZM32.2078 163V163.774H32.7142L32.9173 163.311L32.2078 163ZM0.697837 163L-0.00612485 162.677L-0.509104 163.774H0.697837V163ZM40.0278 77.21L40.7318 77.5327L40.8839 77.201L40.7248 76.8725L40.0278 77.21ZM4.60784 4.06999V3.29558H3.37236L3.91085 4.40752L4.60784 4.06999ZM34.0478 4.06999L34.7488 3.74073L34.5397 3.29558H34.0478V4.06999ZM64.4078 68.7L63.7069 69.0293L63.916 69.4744H64.4078V68.7ZM77.9778 68.7V69.4744H78.7523V68.7H77.9778ZM77.9778 4.06999V3.29558H77.2034V4.06999H77.9778ZM105.578 4.06999H106.352V3.29558H105.578V4.06999ZM105.578 68.7H104.803V69.4744H105.578V68.7ZM119.378 68.7V69.4744H119.867L120.077 69.0333L119.378 68.7ZM150.198 4.06999V3.29558H149.709L149.499 3.73666L150.198 4.06999ZM178.481 3.73246L143.061 76.8725L144.455 77.5475L179.875 4.40752L178.481 3.73246ZM143.053 77.5312L182.153 163.321L183.563 162.679L144.463 76.8888L143.053 77.5312ZM182.858 162.226H150.888V163.774H182.858V162.226ZM151.599 162.693L120.549 90.7033L119.127 91.3167L150.177 163.307L151.599 162.693ZM119.838 90.2356H105.578V91.7844H119.838V90.2356ZM104.803 91.01V163H106.352V91.01H104.803ZM105.578 162.226H77.9778V163.774H105.578V162.226ZM78.7523 163V91.01H77.2034V163H78.7523ZM77.9778 90.2356H63.7178V91.7844H77.9778V90.2356ZM63.0084 90.6995L31.4984 162.689L32.9173 163.311L64.4273 91.3205L63.0084 90.6995ZM32.2078 162.226H0.697837V163.774H32.2078V162.226ZM1.4018 163.323L40.7318 77.5327L39.3239 76.8873L-0.00612485 162.677L1.4018 163.323ZM40.7248 76.8725L5.30482 3.73246L3.91085 4.40752L39.3309 77.5475L40.7248 76.8725ZM4.60784 4.8444H34.0478V3.29558H4.60784V4.8444ZM33.3469 4.39925L63.7069 69.0293L65.1088 68.3707L34.7488 3.74073L33.3469 4.39925ZM64.4078 69.4744H77.9778V67.9256H64.4078V69.4744ZM78.7523 68.7V4.06999H77.2034V68.7H78.7523ZM77.9778 4.8444H105.578V3.29558H77.9778V4.8444ZM104.803 4.06999V68.7H106.352V4.06999H104.803ZM105.578 69.4744H119.378V67.9256H105.578V69.4744ZM120.077 69.0333L150.897 4.40332L149.499 3.73666L118.679 68.3667L120.077 69.0333ZM150.198 4.8444H179.178V3.29558H150.198V4.8444ZM301.558 4.06999L302.25 4.41632L302.811 3.29558H301.558V4.06999ZM264.988 77.21L264.295 76.8637L264.127 77.2002L264.287 77.5405L264.988 77.21ZM305.468 163V163.774H306.689L306.168 162.67L305.468 163ZM273.268 163L272.565 163.326L272.774 163.774H273.268V163ZM239.918 91.24L240.62 90.9136L240.412 90.4656H239.918V91.24ZM223.588 91.24V90.4656H222.813V91.24H223.588ZM223.588 163V163.774H224.362V163H223.588ZM193.688 163H192.913V163.774H193.688V163ZM193.688 4.06999V3.29558H192.913V4.06999H193.688ZM223.588 4.06999H224.362V3.29558H223.588V4.06999ZM223.588 68.47H222.813V69.2444H223.588V68.47ZM240.378 68.47V69.2444H240.858L241.071 68.8143L240.378 68.47ZM272.348 4.06999V3.29558H271.867L271.654 3.72565L272.348 4.06999ZM300.865 3.72366L264.295 76.8637L265.68 77.5563L302.25 4.41632L300.865 3.72366ZM264.287 77.5405L304.767 163.33L306.168 162.67L265.688 76.8795L264.287 77.5405ZM305.468 162.226H273.268V163.774H305.468V162.226ZM273.97 162.674L240.62 90.9136L239.215 91.5664L272.565 163.326L273.97 162.674ZM239.918 90.4656H223.588V92.0144H239.918V90.4656ZM222.813 91.24V163H224.362V91.24H222.813ZM223.588 162.226H193.688V163.774H223.588V162.226ZM194.462 163V4.06999H192.913V163H194.462ZM193.688 4.8444H223.588V3.29558H193.688V4.8444ZM222.813 4.06999V68.47H224.362V4.06999H222.813ZM223.588 69.2444H240.378V67.6956H223.588V69.2444ZM241.071 68.8143L273.041 4.41433L271.654 3.72565L239.684 68.1256L241.071 68.8143ZM272.348 4.8444H301.558V3.29558H272.348V4.8444ZM474.832 4.06999H475.606V3.29558H474.832V4.06999ZM474.832 163V163.774H475.606V163H474.832ZM444.932 163H444.158V163.774H444.932V163ZM444.932 27.76H445.706V26.9856H444.932V27.76ZM397.552 27.76V26.9856H396.778V27.76H397.552ZM397.552 163V163.774H398.326V163H397.552ZM367.652 163H366.878V163.774H367.652V163ZM367.652 4.06999V3.29558H366.878V4.06999H367.652ZM474.058 4.06999V163H475.606V4.06999H474.058ZM474.832 162.226H444.932V163.774H474.832V162.226ZM445.706 163V27.76H444.158V163H445.706ZM444.932 26.9856H397.552V28.5344H444.932V26.9856ZM396.778 27.76V163H398.326V27.76H396.778ZM397.552 162.226H367.652V163.774H397.552V162.226ZM368.426 163V4.06999H366.878V163H368.426ZM367.652 4.8444H474.832V3.29558H367.652V4.8444ZM588.341 16.95L587.848 17.5479L587.858 17.5556L588.341 16.95ZM588.341 94.23L588.838 94.8235L588.839 94.8228L588.341 94.23ZM531.761 107.34V106.566H530.986V107.34H531.761ZM531.761 163V163.774H532.535V163H531.761ZM501.861 163H501.086V163.774H501.861V163ZM501.861 4.06999V3.29558H501.086V4.06999H501.861ZM566.031 78.36L566.551 78.9339L566.56 78.925L566.031 78.36ZM566.031 32.82L566.56 32.255L566.031 32.82ZM531.761 25.92V25.1456H530.986V25.92H531.761ZM531.761 85.03H530.986V85.8044H531.761V85.03ZM543.031 4.8444C562.712 4.8444 577.612 9.11791 587.848 17.5478L588.833 16.3522C578.216 7.60873 562.909 3.29558 543.031 3.29558V4.8444ZM587.858 17.5556C598.211 25.8077 603.436 38.1313 603.436 54.67H604.985C604.985 37.782 599.631 24.959 588.823 16.3444L587.858 17.5556ZM603.436 54.67C603.436 71.9869 598.203 84.9285 587.842 93.6372L588.839 94.8228C599.639 85.7448 604.985 72.3131 604.985 54.67H603.436ZM587.843 93.6365C577.598 102.224 563.383 106.566 545.101 106.566V108.114C563.618 108.114 578.23 103.716 588.838 94.8235L587.843 93.6365ZM545.101 106.566H531.761V108.114H545.101V106.566ZM530.986 107.34V163H532.535V107.34H530.986ZM531.761 162.226H501.861V163.774H531.761V162.226ZM502.635 163V4.06999H501.086V163H502.635ZM501.861 4.8444H543.031V3.29558H501.861V4.8444ZM543.261 85.8044C553.624 85.8044 561.441 83.5647 566.551 78.9338L565.511 77.7862C560.807 82.0487 553.444 84.2556 543.261 84.2556V85.8044ZM566.56 78.925C571.7 74.1062 574.165 65.9415 574.165 54.67H572.616C572.616 65.7851 570.174 73.4138 565.501 77.795L566.56 78.925ZM574.165 54.67C574.165 44.5927 571.685 37.0597 566.56 32.255L565.501 33.385C570.189 37.7803 572.616 44.8139 572.616 54.67H574.165ZM566.56 32.255C561.45 27.4645 553.63 25.1456 543.261 25.1456V26.6944C553.438 26.6944 560.798 28.9755 565.501 33.385L566.56 32.255ZM543.261 25.1456H531.761V26.6944H543.261V25.1456ZM530.986 25.92V85.03H532.535V25.92H530.986ZM531.761 85.8044H543.261V84.2556H531.761V85.8044ZM704.992 4.06999L705.758 4.18174L705.888 3.29558H704.992V4.06999ZM701.772 26.15V26.9244H702.442L702.538 26.2617L701.772 26.15ZM650.022 26.15V25.3756H649.248V26.15H650.022ZM650.022 71.23H649.248V72.0044H650.022V71.23ZM695.332 71.23H696.106V70.4556H695.332V71.23ZM695.332 93.08V93.8544H696.106V93.08H695.332ZM650.022 93.08V92.3056H649.248V93.08H650.022ZM650.022 140.69H649.248V141.464H650.022V140.69ZM705.452 140.69H706.226V139.916H705.452V140.69ZM705.452 163V163.774H706.226V163H705.452ZM620.122 163H619.348V163.774H620.122V163ZM620.122 4.06999V3.29558H619.348V4.06999H620.122ZM704.226 3.95824L701.006 26.0382L702.538 26.2617L705.758 4.18174L704.226 3.95824ZM701.772 25.3756H650.022V26.9244H701.772V25.3756ZM649.248 26.15V71.23H650.796V26.15H649.248ZM650.022 72.0044H695.332V70.4556H650.022V72.0044ZM694.558 71.23V93.08H696.106V71.23H694.558ZM695.332 92.3056H650.022V93.8544H695.332V92.3056ZM649.248 93.08V140.69H650.796V93.08H649.248ZM650.022 141.464H705.452V139.916H650.022V141.464ZM704.678 140.69V163H706.226V140.69H704.678ZM705.452 162.226H620.122V163.774H705.452V162.226ZM620.896 163V4.06999H619.348V163H620.896ZM620.122 4.8444H704.992V3.29558H620.122V4.8444ZM825.027 21.78L824.42 22.2614L824.423 22.2646L825.027 21.78ZM825.027 145.06L824.418 144.582L825.027 145.06ZM731.877 145.29L732.483 144.809L731.877 145.29ZM731.877 22.24L732.486 22.7182L732.488 22.715L731.877 22.24ZM754.417 37.42L755.089 37.8054L754.417 37.42ZM754.417 129.65L753.745 130.035L753.75 130.044L754.417 129.65ZM802.487 129.88L801.815 129.495L801.813 129.498L802.487 129.88ZM802.487 37.42L801.81 37.7971L801.815 37.8054L802.487 37.42ZM778.337 1.39441C798.063 1.39441 813.391 8.36127 824.42 22.2613L825.633 21.2986C814.276 6.98538 798.478 -0.154419 778.337 -0.154419V1.39441ZM824.423 22.2646C835.462 36.0253 841.042 56.3693 841.042 83.42H842.591C842.591 56.1907 836.979 35.4414 825.631 21.2954L824.423 22.2646ZM841.042 83.42C841.042 110.16 835.463 130.51 824.418 144.582L825.636 145.538C836.977 131.09 842.591 110.347 842.591 83.42H841.042ZM824.418 144.582C813.387 158.634 798.06 165.676 778.337 165.676V167.224C798.481 167.224 814.28 160.006 825.636 145.538L824.418 144.582ZM778.337 165.676C758.767 165.676 743.514 158.71 732.483 144.809L731.27 145.771C742.626 160.083 758.347 167.224 778.337 167.224V165.676ZM732.483 144.809C721.441 130.892 715.861 110.545 715.861 83.65H714.312C714.312 110.728 719.926 131.474 731.27 145.771L732.483 144.809ZM715.861 83.65C715.861 57.0646 721.44 36.7906 732.486 22.7181L731.268 21.7618C719.927 36.2094 714.312 56.8754 714.312 83.65H715.861ZM732.488 22.715C743.521 8.50808 758.773 1.39441 778.337 1.39441V-0.154419C758.341 -0.154419 742.619 7.14523 731.265 21.765L732.488 22.715ZM778.337 22.6156C767.473 22.6156 759.247 27.4464 753.745 37.0346L755.089 37.8054C760.32 28.6869 768.041 24.1644 778.337 24.1644V22.6156ZM753.745 37.0346C748.272 46.5733 745.592 62.1576 745.592 83.65H747.141C747.141 62.2091 749.828 46.9734 755.089 37.8054L753.745 37.0346ZM745.592 83.65C745.592 104.99 748.272 120.497 753.745 130.035L755.089 129.265C749.828 120.096 747.141 104.936 747.141 83.65H745.592ZM753.75 130.044C759.402 139.621 767.622 144.454 778.337 144.454V142.906C768.198 142.906 760.472 138.386 755.084 129.256L753.75 130.044ZM778.337 144.454C789.492 144.454 797.805 139.713 803.161 130.262L801.813 129.498C796.742 138.447 788.955 142.906 778.337 142.906V144.454ZM803.159 130.265C808.632 120.726 811.311 105.065 811.311 83.42H809.762C809.762 105.015 807.075 120.327 801.815 129.495L803.159 130.265ZM811.311 83.42C811.311 62.0797 808.631 46.5727 803.159 37.0346L801.815 37.8054C807.076 46.9739 809.762 62.1336 809.762 83.42H811.311ZM803.163 37.043C800.499 32.2633 797.091 28.6461 792.928 26.2279C788.766 23.81 783.893 22.6156 778.337 22.6156V24.1644C783.667 24.1644 788.262 25.3083 792.15 27.5671C796.038 29.8256 799.261 33.2234 801.81 37.797L803.163 37.043ZM949.441 74.68L948.941 75.2719L948.947 75.2764L949.441 74.68ZM948.751 150.35L949.246 150.945L949.247 150.944L948.751 150.35ZM861.811 163H861.036V163.774H861.811V163ZM861.811 4.06999V3.29558H861.036V4.06999H861.811ZM948.061 4.06999L948.828 4.17632L948.95 3.29558H948.061V4.06999ZM944.841 27.3V28.0744H945.515L945.608 27.4063L944.841 27.3ZM891.711 27.3V26.5256H890.936V27.3H891.711ZM891.711 62.26H890.936V63.0344H891.711V62.26ZM926.211 134.25L926.749 134.807L926.758 134.798L926.211 134.25ZM925.981 90.55L925.433 91.0977L925.442 91.1068L925.981 90.55ZM891.711 83.88V83.1056H890.936V83.88H891.711ZM891.711 140.69H890.936V141.464H891.711V140.69ZM907.581 63.0344C925.565 63.0344 939.315 67.1499 948.941 75.2719L949.94 74.0881C939.939 65.65 925.783 61.4856 907.581 61.4856V63.0344ZM948.947 75.2764C958.535 83.2171 963.386 95.1585 963.386 111.25H964.935C964.935 94.8348 959.973 82.3962 949.935 74.0836L948.947 75.2764ZM963.386 111.25C963.386 128.576 958.301 141.358 948.254 149.756L949.247 150.944C959.747 142.168 964.935 128.884 964.935 111.25H963.386ZM948.255 149.755C938.318 158.036 924.41 162.226 906.431 162.226V163.774C924.638 163.774 938.943 159.531 949.246 150.945L948.255 149.755ZM906.431 162.226H861.811V163.774H906.431V162.226ZM862.585 163V4.06999H861.036V163H862.585ZM861.811 4.8444H948.061V3.29558H861.811V4.8444ZM947.294 3.96366L944.074 27.1937L945.608 27.4063L948.828 4.17632L947.294 3.96366ZM944.841 26.5256H891.711V28.0744H944.841V26.5256ZM890.936 27.3V62.26H892.485V27.3H890.936ZM891.711 63.0344H907.581V61.4856H891.711V63.0344ZM905.741 141.464C915.045 141.464 922.1 139.295 926.749 134.807L925.673 133.693C921.428 137.792 914.837 139.916 905.741 139.916V141.464ZM926.758 134.798C931.422 130.133 933.655 122.363 933.655 111.71H932.106C932.106 122.217 929.892 129.473 925.663 133.702L926.758 134.798ZM933.655 111.71C933.655 101.946 931.332 94.6459 926.519 89.9932L925.442 91.1068C929.829 95.3474 932.106 102.154 932.106 111.71H933.655ZM926.528 90.0024C921.879 85.3528 914.74 83.1056 905.281 83.1056V84.6544C914.528 84.6544 921.189 86.8538 925.433 91.0976L926.528 90.0024ZM905.281 83.1056H891.711V84.6544H905.281V83.1056ZM890.936 83.88V140.69H892.485V83.88H890.936ZM891.711 141.464H905.741V139.916H891.711V141.464ZM1066.78 16.95L1066.28 17.5479L1066.29 17.5556L1066.78 16.95ZM1066.78 94.23L1067.27 94.8235L1067.27 94.8228L1066.78 94.23ZM1010.2 107.34V106.566H1009.42V107.34H1010.2ZM1010.2 163V163.774H1010.97V163H1010.2ZM980.297 163H979.522V163.774H980.297V163ZM980.297 4.06999V3.29558H979.522V4.06999H980.297ZM1044.47 78.36L1044.99 78.9339L1045 78.925L1044.47 78.36ZM1044.47 32.82L1045 32.255L1044.47 32.82ZM1010.2 25.92V25.1456H1009.42V25.92H1010.2ZM1010.2 85.03H1009.42V85.8044H1010.2V85.03ZM1021.47 4.8444C1041.15 4.8444 1056.05 9.11791 1066.28 17.5478L1067.27 16.3522C1056.65 7.60873 1041.35 3.29558 1021.47 3.29558V4.8444ZM1066.29 17.5556C1076.65 25.8077 1081.87 38.1313 1081.87 54.67H1083.42C1083.42 37.782 1078.07 24.959 1067.26 16.3444L1066.29 17.5556ZM1081.87 54.67C1081.87 71.9869 1076.64 84.9285 1066.28 93.6372L1067.27 94.8228C1078.07 85.7448 1083.42 72.3131 1083.42 54.67H1081.87ZM1066.28 93.6365C1056.03 102.224 1041.82 106.566 1023.54 106.566V108.114C1042.05 108.114 1056.67 103.716 1067.27 94.8235L1066.28 93.6365ZM1023.54 106.566H1010.2V108.114H1023.54V106.566ZM1009.42 107.34V163H1010.97V107.34H1009.42ZM1010.2 162.226H980.297V163.774H1010.2V162.226ZM981.071 163V4.06999H979.522V163H981.071ZM980.297 4.8444H1021.47V3.29558H980.297V4.8444ZM1021.7 85.8044C1032.06 85.8044 1039.88 83.5647 1044.99 78.9338L1043.95 77.7862C1039.24 82.0487 1031.88 84.2556 1021.7 84.2556V85.8044ZM1045 78.925C1050.14 74.1062 1052.6 65.9415 1052.6 54.67H1051.05C1051.05 65.7851 1048.61 73.4138 1043.94 77.795L1045 78.925ZM1052.6 54.67C1052.6 44.5927 1050.12 37.0597 1045 32.255L1043.94 33.385C1048.63 37.7803 1051.05 44.8139 1051.05 54.67H1052.6ZM1045 32.255C1039.89 27.4645 1032.07 25.1456 1021.7 25.1456V26.6944C1031.87 26.6944 1039.23 28.9755 1043.94 33.385L1045 32.255ZM1021.7 25.1456H1010.2V26.6944H1021.7V25.1456ZM1009.42 25.92V85.03H1010.97V25.92H1009.42ZM1010.2 85.8044H1021.7V84.2556H1010.2V85.8044ZM1161.91 163L1161.15 163.178L1161.29 163.774H1161.91V163ZM1153.17 125.97L1153.92 125.792L1153.78 125.196H1153.17V125.97ZM1107.17 125.97V125.196H1106.55L1106.41 125.792L1107.17 125.97ZM1098.43 163V163.774H1099.04L1099.18 163.178L1098.43 163ZM1068.3 163L1067.55 162.793L1067.28 163.774H1068.3V163ZM1112.46 4.06999V3.29558H1111.87L1111.71 3.86267L1112.46 4.06999ZM1148.8 4.06999L1149.54 3.86367L1149.39 3.29558H1148.8V4.06999ZM1192.73 163V163.774H1193.74L1193.47 162.794L1192.73 163ZM1112.23 103.43L1111.47 103.253L1111.25 104.204H1112.23V103.43ZM1148.11 103.43V104.204H1149.08L1148.86 103.253L1148.11 103.43ZM1130.17 26.84L1130.92 26.6634H1129.41L1130.17 26.84ZM1162.66 162.822L1153.92 125.792L1152.41 126.148L1161.15 163.178L1162.66 162.822ZM1153.17 125.196H1107.17V126.744H1153.17V125.196ZM1106.41 125.792L1097.67 162.822L1099.18 163.178L1107.92 126.148L1106.41 125.792ZM1098.43 162.226H1068.3V163.774H1098.43V162.226ZM1069.04 163.207L1113.2 4.27731L1111.71 3.86267L1067.55 162.793L1069.04 163.207ZM1112.46 4.8444H1148.8V3.29558H1112.46V4.8444ZM1148.05 4.27631L1191.98 163.206L1193.47 162.794L1149.54 3.86367L1148.05 4.27631ZM1192.73 162.226H1161.91V163.774H1192.73V162.226ZM1112.23 104.204H1148.11V102.656H1112.23V104.204ZM1148.86 103.253L1130.92 26.6634L1129.41 27.0166L1147.35 103.607L1148.86 103.253ZM1129.41 26.6634L1111.47 103.253L1112.98 103.607L1130.92 27.0166L1129.41 26.6634ZM1365.49 4.06999L1366.19 4.40752L1366.73 3.29558H1365.49V4.06999ZM1330.07 77.21L1329.38 76.8725L1329.22 77.2L1329.37 77.5312L1330.07 77.21ZM1369.17 163V163.774H1370.38L1369.88 162.679L1369.17 163ZM1337.2 163L1336.49 163.307L1336.69 163.774H1337.2V163ZM1306.15 91.01L1306.86 90.7033L1306.66 90.2356H1306.15V91.01ZM1291.89 91.01V90.2356H1291.12V91.01H1291.89ZM1291.89 163V163.774H1292.67V163H1291.89ZM1264.29 163H1263.52V163.774H1264.29V163ZM1264.29 91.01H1265.07V90.2356H1264.29V91.01ZM1250.03 91.01V90.2356H1249.53L1249.32 90.6995L1250.03 91.01ZM1218.52 163V163.774H1219.03L1219.23 163.311L1218.52 163ZM1187.01 163L1186.31 162.677L1185.81 163.774H1187.01V163ZM1226.34 77.21L1227.05 77.5327L1227.2 77.201L1227.04 76.8725L1226.34 77.21ZM1190.92 4.06999V3.29558H1189.69L1190.23 4.40752L1190.92 4.06999ZM1220.36 4.06999L1221.06 3.74073L1220.85 3.29558H1220.36V4.06999ZM1250.72 68.7L1250.02 69.0293L1250.23 69.4744H1250.72V68.7ZM1264.29 68.7V69.4744H1265.07V68.7H1264.29ZM1264.29 4.06999V3.29558H1263.52V4.06999H1264.29ZM1291.89 4.06999H1292.67V3.29558H1291.89V4.06999ZM1291.89 68.7H1291.12V69.4744H1291.89V68.7ZM1305.69 68.7V69.4744H1306.18L1306.39 69.0333L1305.69 68.7ZM1336.51 4.06999V3.29558H1336.02L1335.81 3.73666L1336.51 4.06999ZM1364.8 3.73246L1329.38 76.8725L1330.77 77.5475L1366.19 4.40752L1364.8 3.73246ZM1329.37 77.5312L1368.47 163.321L1369.88 162.679L1330.78 76.8888L1329.37 77.5312ZM1369.17 162.226H1337.2V163.774H1369.17V162.226ZM1337.91 162.693L1306.86 90.7033L1305.44 91.3167L1336.49 163.307L1337.91 162.693ZM1306.15 90.2356H1291.89V91.7844H1306.15V90.2356ZM1291.12 91.01V163H1292.67V91.01H1291.12ZM1291.89 162.226H1264.29V163.774H1291.89V162.226ZM1265.07 163V91.01H1263.52V163H1265.07ZM1264.29 90.2356H1250.03V91.7844H1264.29V90.2356ZM1249.32 90.6995L1217.81 162.689L1219.23 163.311L1250.74 91.3205L1249.32 90.6995ZM1218.52 162.226H1187.01V163.774H1218.52V162.226ZM1187.72 163.323L1227.05 77.5327L1225.64 76.8873L1186.31 162.677L1187.72 163.323ZM1227.04 76.8725L1191.62 3.73246L1190.23 4.40752L1225.65 77.5475L1227.04 76.8725ZM1190.92 4.8444H1220.36V3.29558H1190.92V4.8444ZM1219.66 4.39925L1250.02 69.0293L1251.42 68.3707L1221.06 3.74073L1219.66 4.39925ZM1250.72 69.4744H1264.29V67.9256H1250.72V69.4744ZM1265.07 68.7V4.06999H1263.52V68.7H1265.07ZM1264.29 4.8444H1291.89V3.29558H1264.29V4.8444ZM1291.12 4.06999V68.7H1292.67V4.06999H1291.12ZM1291.89 69.4744H1305.69V67.9256H1291.89V69.4744ZM1306.39 69.0333L1337.21 4.40332L1335.81 3.73666L1304.99 68.3667L1306.39 69.0333ZM1336.51 4.8444H1365.49V3.29558H1336.51V4.8444ZM1464.87 4.06999L1465.64 4.18174L1465.77 3.29558H1464.87V4.06999ZM1461.65 26.15V26.9244H1462.32L1462.42 26.2617L1461.65 26.15ZM1409.9 26.15V25.3756H1409.13V26.15H1409.9ZM1409.9 71.23H1409.13V72.0044H1409.9V71.23ZM1455.21 71.23H1455.99V70.4556H1455.21V71.23ZM1455.21 93.08V93.8544H1455.99V93.08H1455.21ZM1409.9 93.08V92.3056H1409.13V93.08H1409.9ZM1409.9 140.69H1409.13V141.464H1409.9V140.69ZM1465.33 140.69H1466.11V139.916H1465.33V140.69ZM1465.33 163V163.774H1466.11V163H1465.33ZM1380 163H1379.23V163.774H1380V163ZM1380 4.06999V3.29558H1379.23V4.06999H1380ZM1464.11 3.95824L1460.89 26.0382L1462.42 26.2617L1465.64 4.18174L1464.11 3.95824ZM1461.65 25.3756H1409.9V26.9244H1461.65V25.3756ZM1409.13 26.15V71.23H1410.68V26.15H1409.13ZM1409.9 72.0044H1455.21V70.4556H1409.9V72.0044ZM1454.44 71.23V93.08H1455.99V71.23H1454.44ZM1455.21 92.3056H1409.9V93.8544H1455.21V92.3056ZM1409.13 93.08V140.69H1410.68V93.08H1409.13ZM1409.9 141.464H1465.33V139.916H1409.9V141.464ZM1464.56 140.69V163H1466.11V140.69H1464.56ZM1465.33 162.226H1380V163.774H1465.33V162.226ZM1380.78 163V4.06999H1379.23V163H1380.78ZM1380 4.8444H1464.87V3.29558H1380V4.8444ZM1562.53 163H1561.75V163.774H1562.53V163ZM1562.53 91.7H1563.3V90.9256H1562.53V91.7ZM1514.69 91.7V90.9256H1513.91V91.7H1514.69ZM1514.69 163V163.774H1515.46V163H1514.69ZM1484.79 163H1484.01V163.774H1484.79V163ZM1484.79 4.06999V3.29558H1484.01V4.06999H1484.79ZM1514.69 4.06999H1515.46V3.29558H1514.69V4.06999ZM1514.69 68.01H1513.91V68.7844H1514.69V68.01ZM1562.53 68.01V68.7844H1563.3V68.01H1562.53ZM1562.53 4.06999V3.29558H1561.75V4.06999H1562.53ZM1592.43 4.06999H1593.2V3.29558H1592.43V4.06999ZM1592.43 163V163.774H1593.2V163H1592.43ZM1563.3 163V91.7H1561.75V163H1563.3ZM1562.53 90.9256H1514.69V92.4744H1562.53V90.9256ZM1513.91 91.7V163H1515.46V91.7H1513.91ZM1514.69 162.226H1484.79V163.774H1514.69V162.226ZM1485.56 163V4.06999H1484.01V163H1485.56ZM1484.79 4.8444H1514.69V3.29558H1484.79V4.8444ZM1513.91 4.06999V68.01H1515.46V4.06999H1513.91ZM1514.69 68.7844H1562.53V67.2356H1514.69V68.7844ZM1563.3 68.01V4.06999H1561.75V68.01H1563.3ZM1562.53 4.8444H1592.43V3.29558H1562.53V4.8444ZM1591.65 4.06999V163H1593.2V4.06999H1591.65ZM1592.43 162.226H1562.53V163.774H1592.43V162.226ZM1727.08 163V163.774H1727.85V163H1727.08ZM1698.1 163H1697.33V163.774H1698.1V163ZM1702.01 34.66L1702.78 34.7627L1701.28 34.3987L1702.01 34.66ZM1656.01 163V163.774H1656.55L1656.74 163.261L1656.01 163ZM1619.67 163H1618.9V163.774H1619.67V163ZM1619.67 4.06999V3.29558H1618.9V4.06999H1619.67ZM1648.65 4.06999H1649.42V3.29558H1648.65V4.06999ZM1647.5 103.89L1646.73 103.819L1646.73 103.826L1646.73 103.833L1647.5 103.89ZM1644.74 132.41L1643.97 132.322L1645.47 132.674L1644.74 132.41ZM1691.2 4.06999V3.29558H1690.66L1690.47 3.80639L1691.2 4.06999ZM1727.08 4.06999H1727.85V3.29558H1727.08V4.06999ZM1727.08 162.226H1698.1V163.774H1727.08V162.226ZM1698.87 163V94.69H1697.33V163H1698.87ZM1698.87 94.69C1698.87 74.1761 1700.18 54.2005 1702.78 34.7627L1701.24 34.5572C1698.63 54.0662 1697.33 74.1105 1697.33 94.69H1698.87ZM1701.28 34.3987L1655.28 162.739L1656.74 163.261L1702.74 34.9213L1701.28 34.3987ZM1656.01 162.226H1619.67V163.774H1656.01V162.226ZM1620.44 163V4.06999H1618.9V163H1620.44ZM1619.67 4.8444H1648.65V3.29558H1619.67V4.8444ZM1647.88 4.06999V73.07H1649.42V4.06999H1647.88ZM1647.88 73.07C1647.88 85.3229 1647.49 95.5706 1646.73 103.819L1648.27 103.961C1649.04 95.6494 1649.42 85.3504 1649.42 73.07H1647.88ZM1646.73 103.833C1646.11 112.1 1645.2 121.596 1643.97 132.322L1645.51 132.498C1646.74 121.757 1647.66 112.24 1648.27 103.947L1646.73 103.833ZM1645.47 132.674L1691.93 4.33359L1690.47 3.80639L1644.01 132.146L1645.47 132.674ZM1691.2 4.8444H1727.08V3.29558H1691.2V4.8444ZM1726.31 4.06999V163H1727.85V4.06999H1726.31ZM1839.2 4.06999L1839.96 4.18174L1840.09 3.29558H1839.2V4.06999ZM1835.98 26.15V26.9244H1836.65L1836.74 26.2617L1835.98 26.15ZM1784.23 26.15V25.3756H1783.45V26.15H1784.23ZM1784.23 71.23H1783.45V72.0044H1784.23V71.23ZM1829.54 71.23H1830.31V70.4556H1829.54V71.23ZM1829.54 93.08V93.8544H1830.31V93.08H1829.54ZM1784.23 93.08V92.3056H1783.45V93.08H1784.23ZM1784.23 140.69H1783.45V141.464H1784.23V140.69ZM1839.66 140.69H1840.43V139.916H1839.66V140.69ZM1839.66 163V163.774H1840.43V163H1839.66ZM1754.33 163H1753.55V163.774H1754.33V163ZM1754.33 4.06999V3.29558H1753.55V4.06999H1754.33ZM1838.43 3.95824L1835.21 26.0382L1836.74 26.2617L1839.96 4.18174L1838.43 3.95824ZM1835.98 25.3756H1784.23V26.9244H1835.98V25.3756ZM1783.45 26.15V71.23H1785V26.15H1783.45ZM1784.23 72.0044H1829.54V70.4556H1784.23V72.0044ZM1828.76 71.23V93.08H1830.31V71.23H1828.76ZM1829.54 92.3056H1784.23V93.8544H1829.54V92.3056ZM1783.45 93.08V140.69H1785V93.08H1783.45ZM1784.23 141.464H1839.66V139.916H1784.23V141.464ZM1838.88 140.69V163H1840.43V140.69H1838.88ZM1839.66 162.226H1754.33V163.774H1839.66V162.226ZM1755.1 163V4.06999H1753.55V163H1755.1ZM1754.33 4.8444H1839.2V3.29558H1754.33V4.8444Z" fill="black" mask="url(#path-1-inside-1_2343_396)"/>
</g>
</svg>