<svg xmlns="http://www.w3.org/2000/svg" width="586" height="47" viewBox="0 0 586 46" fill="none">
<mask id="path-1-outside-1_2335_12052" maskUnits="userSpaceOnUse" x="-1" y="-1" width="586" height="46" fill="black">
<rect fill="white" x="-1" y="-1" width="586" height="46"/>
<path d="M48.64 1.48L39.52 20.5L49.6 43H40.36L32.56 24.46H29.14V43H21.22V24.46H17.68L9.82 43H0.76L10.84 20.5L1.72 1.48H10.18L17.92 18.16H21.22V1.48H29.14V18.16H32.44L40.3 1.48H48.64ZM88.2213 1.48L78.9213 20.5L89.2413 43H79.9413L71.6613 24.58H67.6413V43H59.0013V1.48H67.6413V18.1H71.8413L79.8813 1.48H88.2213ZM146.439 1.48V43H137.799V8.26H126.399V43H117.759V1.48H146.439ZM171.133 1.48C176.373 1.48 180.393 2.6 183.193 4.84C185.993 7.08 187.393 10.4 187.393 14.8C187.393 19.44 186.013 22.94 183.253 25.3C180.493 27.62 176.693 28.78 171.853 28.78H168.493V43H159.853V1.48H171.133ZM171.253 22.42C173.693 22.42 175.513 21.84 176.713 20.68C177.913 19.52 178.513 17.58 178.513 14.86C178.513 12.42 177.913 10.62 176.713 9.46C175.513 8.3 173.673 7.72 171.193 7.72H168.493V22.42H171.253ZM220.997 1.48L220.097 7.78H206.837V18.76H218.417V25H206.837V36.64H220.997V43H198.197V1.48H220.997ZM247.091 0.52C252.411 0.52 256.531 2.38 259.451 6.1C262.371 9.78 263.831 15.16 263.831 22.24C263.831 29.24 262.371 34.62 259.451 38.38C256.531 42.1 252.411 43.96 247.091 43.96C241.771 43.96 237.631 42.12 234.671 38.44C231.751 34.72 230.291 29.32 230.291 22.24C230.291 15.24 231.751 9.88 234.671 6.16C237.631 2.4 241.771 0.52 247.091 0.52ZM247.091 7C244.451 7 242.491 8.18 241.211 10.54C239.931 12.9 239.291 16.8 239.291 22.24C239.291 27.72 239.931 31.64 241.211 34C242.531 36.32 244.491 37.48 247.091 37.48C249.731 37.48 251.671 36.32 252.911 34C254.191 31.64 254.831 27.72 254.831 22.24C254.831 16.8 254.191 12.9 252.911 10.54C251.671 8.18 249.731 7 247.091 7ZM288.186 16.48C292.986 16.48 296.686 17.56 299.286 19.72C301.886 21.88 303.186 25.1 303.186 29.38C303.186 33.94 301.826 37.36 299.106 39.64C296.426 41.88 292.726 43 288.006 43H275.646V1.48H298.866L297.966 8.14H284.286V16.48H288.186ZM287.646 36.58C289.846 36.58 291.466 36.04 292.506 34.96C293.586 33.84 294.126 32.02 294.126 29.5C294.126 27.14 293.586 25.42 292.506 24.34C291.466 23.22 289.786 22.66 287.466 22.66H284.286V36.58H287.646ZM325.27 1.48C330.51 1.48 334.53 2.6 337.33 4.84C340.13 7.08 341.53 10.4 341.53 14.8C341.53 19.44 340.15 22.94 337.39 25.3C334.63 27.62 330.83 28.78 325.99 28.78H322.63V43H313.99V1.48H325.27ZM325.39 22.42C327.83 22.42 329.65 21.84 330.85 20.68C332.05 19.52 332.65 17.58 332.65 14.86C332.65 12.42 332.05 10.62 330.85 9.46C329.65 8.3 327.81 7.72 325.33 7.72H322.63V22.42H325.39ZM368.859 43L366.819 33.64H355.419L353.379 43H344.619L356.019 1.48H366.459L377.799 43H368.859ZM356.859 27.28H365.379L361.119 7.9L356.859 27.28ZM431.023 1.48L421.903 20.5L431.983 43H422.743L414.943 24.46H411.523V43H403.603V24.46H400.063L392.203 43H383.143L393.223 20.5L384.103 1.48H392.563L400.303 18.16H403.603V1.48H411.523V18.16H414.823L422.683 1.48H431.023ZM464.184 1.48L463.284 7.78H450.024V18.76H461.604V25H450.024V36.64H464.184V43H441.384V1.48H464.184ZM496.021 43V24.76H484.501V43H475.861V1.48H484.501V17.92H496.021V1.48H504.661V43H496.021ZM546.752 43H538.412V26.14C538.412 21.26 538.772 15.94 539.492 10.18L528.452 43H518.072V1.48H526.412V18.58C526.412 21.78 526.312 24.54 526.112 26.86C525.952 29.14 525.692 31.62 525.332 34.3L536.432 1.48H546.752V43ZM582.965 1.48L582.065 7.78H568.805V18.76H580.385V25H568.805V36.64H582.965V43H560.165V1.48H582.965Z"/>
</mask>
<path d="M48.64 1.48L49.5417 1.91236L50.2285 0.479998H48.64V1.48ZM39.52 20.5L38.6183 20.0676L38.4178 20.4857L38.6074 20.9088L39.52 20.5ZM49.6 43V44H51.1438L50.5126 42.5912L49.6 43ZM40.36 43L39.4383 43.3878L39.6958 44H40.36V43ZM32.56 24.46L33.4818 24.0722L33.2242 23.46H32.56V24.46ZM29.14 24.46V23.46H28.14V24.46H29.14ZM29.14 43V44H30.14V43H29.14ZM21.22 43H20.22V44H21.22V43ZM21.22 24.46H22.22V23.46H21.22V24.46ZM17.68 24.46V23.46H17.0178L16.7593 24.0697L17.68 24.46ZM9.82 43V44H10.4822L10.7407 43.3903L9.82 43ZM0.76 43L-0.152603 42.5912L-0.783766 44H0.76V43ZM10.84 20.5L11.7526 20.9088L11.9422 20.4857L11.7417 20.0676L10.84 20.5ZM1.72 1.48V0.479998H0.131489L0.818299 1.91236L1.72 1.48ZM10.18 1.48L11.0871 1.05908L10.8184 0.479998H10.18V1.48ZM17.92 18.16L17.0129 18.5809L17.2816 19.16H17.92V18.16ZM21.22 18.16V19.16H22.22V18.16H21.22ZM21.22 1.48V0.479998H20.22V1.48H21.22ZM29.14 1.48H30.14V0.479998H29.14V1.48ZM29.14 18.16H28.14V19.16H29.14V18.16ZM32.44 18.16V19.16H33.0742L33.3446 18.5863L32.44 18.16ZM40.3 1.48V0.479998H39.6658L39.3954 1.05373L40.3 1.48ZM47.7383 1.04764L38.6183 20.0676L40.4217 20.9324L49.5417 1.91236L47.7383 1.04764ZM38.6074 20.9088L48.6874 43.4088L50.5126 42.5912L40.4326 20.0912L38.6074 20.9088ZM49.6 42H40.36V44H49.6V42ZM41.2817 42.6122L33.4818 24.0722L31.6383 24.8478L39.4383 43.3878L41.2817 42.6122ZM32.56 23.46H29.14V25.46H32.56V23.46ZM28.14 24.46V43H30.14V24.46H28.14ZM29.14 42H21.22V44H29.14V42ZM22.22 43V24.46H20.22V43H22.22ZM21.22 23.46H17.68V25.46H21.22V23.46ZM16.7593 24.0697L8.89932 42.6097L10.7407 43.3903L18.6007 24.8503L16.7593 24.0697ZM9.82 42H0.76V44H9.82V42ZM1.6726 43.4088L11.7526 20.9088L9.9274 20.0912L-0.152603 42.5912L1.6726 43.4088ZM11.7417 20.0676L2.6217 1.04764L0.818299 1.91236L9.9383 20.9324L11.7417 20.0676ZM1.72 2.48H10.18V0.479998H1.72V2.48ZM9.2729 1.90092L17.0129 18.5809L18.8271 17.7391L11.0871 1.05908L9.2729 1.90092ZM17.92 19.16H21.22V17.16H17.92V19.16ZM22.22 18.16V1.48H20.22V18.16H22.22ZM21.22 2.48H29.14V0.479998H21.22V2.48ZM28.14 1.48V18.16H30.14V1.48H28.14ZM29.14 19.16H32.44V17.16H29.14V19.16ZM33.3446 18.5863L41.2046 1.90627L39.3954 1.05373L31.5354 17.7337L33.3446 18.5863ZM40.3 2.48H48.64V0.479998H40.3V2.48ZM88.2213 1.48L89.1196 1.91926L89.8233 0.479998H88.2213V1.48ZM78.9212 20.5L78.0229 20.0607L77.8148 20.4863L78.0123 20.9169L78.9212 20.5ZM89.2412 43V44H90.8001L90.1502 42.5831L89.2412 43ZM79.9413 43L79.0292 43.41L79.2944 44H79.9413V43ZM71.6612 24.58L72.5733 24.17L72.3081 23.58H71.6612V24.58ZM67.6413 24.58V23.58H66.6413V24.58H67.6413ZM67.6413 43V44H68.6413V43H67.6413ZM59.0013 43H58.0013V44H59.0013V43ZM59.0013 1.48V0.479998H58.0013V1.48H59.0013ZM67.6413 1.48H68.6413V0.479998H67.6413V1.48ZM67.6413 18.1H66.6413V19.1H67.6413V18.1ZM71.8412 18.1V19.1H72.4684L72.7415 18.5355L71.8412 18.1ZM79.8812 1.48V0.479998H79.2541L78.981 1.04452L79.8812 1.48ZM87.3229 1.04074L78.0229 20.0607L79.8196 20.9393L89.1196 1.91926L87.3229 1.04074ZM78.0123 20.9169L88.3323 43.4169L90.1502 42.5831L79.8302 20.0831L78.0123 20.9169ZM89.2412 42H79.9413V44H89.2412V42ZM80.8533 42.59L72.5733 24.17L70.7492 24.99L79.0292 43.41L80.8533 42.59ZM71.6612 23.58H67.6413V25.58H71.6612V23.58ZM66.6413 24.58V43H68.6413V24.58H66.6413ZM67.6413 42H59.0013V44H67.6413V42ZM60.0013 43V1.48H58.0013V43H60.0013ZM59.0013 2.48H67.6413V0.479998H59.0013V2.48ZM66.6413 1.48V18.1H68.6413V1.48H66.6413ZM67.6413 19.1H71.8412V17.1H67.6413V19.1ZM72.7415 18.5355L80.7814 1.91547L78.981 1.04452L70.941 17.6645L72.7415 18.5355ZM79.8812 2.48H88.2213V0.479998H79.8812V2.48ZM146.439 1.48H147.439V0.479998H146.439V1.48ZM146.439 43V44H147.439V43H146.439ZM137.799 43H136.799V44H137.799V43ZM137.799 8.26H138.799V7.26H137.799V8.26ZM126.399 8.26V7.26H125.399V8.26H126.399ZM126.399 43V44H127.399V43H126.399ZM117.759 43H116.759V44H117.759V43ZM117.759 1.48V0.479998H116.759V1.48H117.759ZM145.439 1.48V43H147.439V1.48H145.439ZM146.439 42H137.799V44H146.439V42ZM138.799 43V8.26H136.799V43H138.799ZM137.799 7.26H126.399V9.26H137.799V7.26ZM125.399 8.26V43H127.399V8.26H125.399ZM126.399 42H117.759V44H126.399V42ZM118.759 43V1.48H116.759V43H118.759ZM117.759 2.48H146.439V0.479998H117.759V2.48ZM183.193 4.84L183.818 4.05913L183.193 4.84ZM183.253 25.3L183.896 26.0655L183.903 26.06L183.253 25.3ZM168.493 28.78V27.78H167.493V28.78H168.493ZM168.493 43V44H169.493V43H168.493ZM159.853 43H158.853V44H159.853V43ZM159.853 1.48V0.479998H158.853V1.48H159.853ZM176.713 20.68L177.408 21.399L176.713 20.68ZM168.493 7.72V6.72H167.493V7.72H168.493ZM168.493 22.42H167.493V23.42H168.493V22.42ZM171.133 2.48C176.247 2.48 180.011 3.57521 182.568 5.62087L183.818 4.05913C180.775 1.62479 176.499 0.479998 171.133 0.479998V2.48ZM182.568 5.62087C185.077 7.62816 186.393 10.6277 186.393 14.8H188.393C188.393 10.1723 186.908 6.53183 183.818 4.05913L182.568 5.62087ZM186.393 14.8C186.393 19.235 185.082 22.4202 182.603 24.54L183.903 26.06C186.944 23.4598 188.393 19.645 188.393 14.8H186.393ZM182.609 24.5345C180.083 26.658 176.538 27.78 171.853 27.78V29.78C176.847 29.78 180.902 28.582 183.896 26.0655L182.609 24.5345ZM171.853 27.78H168.493V29.78H171.853V27.78ZM167.493 28.78V43H169.493V28.78H167.493ZM168.493 42H159.853V44H168.493V42ZM160.853 43V1.48H158.853V43H160.853ZM159.853 2.48H171.133V0.479998H159.853V2.48ZM171.253 23.42C173.833 23.42 175.95 22.8078 177.408 21.399L176.018 19.961C175.075 20.8722 173.552 21.42 171.253 21.42V23.42ZM177.408 21.399C178.895 19.961 179.513 17.6873 179.513 14.86H177.513C177.513 17.4727 176.93 19.079 176.018 19.961L177.408 21.399ZM179.513 14.86C179.513 12.2746 178.878 10.1618 177.408 8.74101L176.018 10.179C176.948 11.0782 177.513 12.5654 177.513 14.86H179.513ZM177.408 8.74101C175.948 7.32969 173.808 6.72 171.193 6.72V8.72C173.538 8.72 175.078 9.27031 176.018 10.179L177.408 8.74101ZM171.193 6.72H168.493V8.72H171.193V6.72ZM167.493 7.72V22.42H169.493V7.72H167.493ZM168.493 23.42H171.253V21.42H168.493V23.42ZM220.997 1.48L221.987 1.62142L222.15 0.479998H220.997V1.48ZM220.097 7.78V8.78H220.964L221.087 7.92142L220.097 7.78ZM206.837 7.78V6.78H205.837V7.78H206.837ZM206.837 18.76H205.837V19.76H206.837V18.76ZM218.417 18.76H219.417V17.76H218.417V18.76ZM218.417 25V26H219.417V25H218.417ZM206.837 25V24H205.837V25H206.837ZM206.837 36.64H205.837V37.64H206.837V36.64ZM220.997 36.64H221.997V35.64H220.997V36.64ZM220.997 43V44H221.997V43H220.997ZM198.197 43H197.197V44H198.197V43ZM198.197 1.48V0.479998H197.197V1.48H198.197ZM220.007 1.33858L219.107 7.63858L221.087 7.92142L221.987 1.62142L220.007 1.33858ZM220.097 6.78H206.837V8.78H220.097V6.78ZM205.837 7.78V18.76H207.837V7.78H205.837ZM206.837 19.76H218.417V17.76H206.837V19.76ZM217.417 18.76V25H219.417V18.76H217.417ZM218.417 24H206.837V26H218.417V24ZM205.837 25V36.64H207.837V25H205.837ZM206.837 37.64H220.997V35.64H206.837V37.64ZM219.997 36.64V43H221.997V36.64H219.997ZM220.997 42H198.197V44H220.997V42ZM199.197 43V1.48H197.197V43H199.197ZM198.197 2.48H220.997V0.479998H198.197V2.48ZM259.451 6.1L258.665 6.71746L258.668 6.72157L259.451 6.1ZM259.451 38.38L260.238 38.9975L260.241 38.9934L259.451 38.38ZM234.671 38.44L233.885 39.0575L233.892 39.0668L234.671 38.44ZM234.671 6.16L233.886 5.54144L233.885 5.54255L234.671 6.16ZM241.211 10.54L242.09 11.0168L241.211 10.54ZM241.211 34L240.332 34.4768L240.337 34.4857L240.342 34.4945L241.211 34ZM252.911 34L252.032 33.5232L252.029 33.5286L252.911 34ZM252.911 10.54L252.026 11.0052L252.032 11.0168L252.911 10.54ZM247.091 1.52C252.148 1.52 255.96 3.27131 258.665 6.71745L260.238 5.48255C257.103 1.48868 252.675 -0.48 247.091 -0.48V1.52ZM258.668 6.72157C261.392 10.1548 262.831 15.2764 262.831 22.24H264.831C264.831 15.0436 263.351 9.40516 260.235 5.47842L258.668 6.72157ZM262.831 22.24C262.831 29.1184 261.394 34.2477 258.662 37.7666L260.241 38.9934C263.348 34.9923 264.831 29.3616 264.831 22.24H262.831ZM258.665 37.7626C255.96 41.2087 252.148 42.96 247.091 42.96V44.96C252.675 44.96 257.103 42.9913 260.238 38.9974L258.665 37.7626ZM247.091 42.96C242.031 42.96 238.195 41.2254 235.451 37.8132L233.892 39.0668C237.068 43.0146 241.512 44.96 247.091 44.96V42.96ZM235.458 37.8226C232.73 34.3473 231.291 29.2025 231.291 22.24H229.291C229.291 29.4374 230.773 35.0927 233.885 39.0574L235.458 37.8226ZM231.291 22.24C231.291 15.3606 232.729 10.2544 235.458 6.77745L233.885 5.54255C230.774 9.50559 229.291 15.1194 229.291 22.24H231.291ZM235.457 6.77856C238.205 3.28852 242.039 1.52 247.091 1.52V-0.48C241.504 -0.48 237.058 1.51147 233.886 5.54144L235.457 6.77856ZM247.091 6C245.618 6 244.284 6.33087 243.126 7.02828C241.968 7.72515 241.043 8.75392 240.332 10.0632L242.09 11.0168C242.66 9.96608 243.355 9.22485 244.157 8.74172C244.959 8.25913 245.925 8 247.091 8V6ZM240.332 10.0632C238.926 12.6557 238.291 16.7714 238.291 22.24H240.291C240.291 16.8286 240.937 13.1443 242.09 11.0168L240.332 10.0632ZM238.291 22.24C238.291 27.7471 238.926 31.8836 240.332 34.4768L242.09 33.5232C240.937 31.3964 240.291 27.6929 240.291 22.24H238.291ZM240.342 34.4945C241.834 37.1167 244.12 38.48 247.091 38.48V36.48C244.863 36.48 243.229 35.5233 242.081 33.5055L240.342 34.4945ZM247.091 38.48C248.561 38.48 249.89 38.1556 251.04 37.4683C252.189 36.7808 253.102 35.7648 253.793 34.4714L252.029 33.5286C251.481 34.5552 250.803 35.2792 250.013 35.7517C249.223 36.2244 248.261 36.48 247.091 36.48V38.48ZM253.79 34.4768C255.197 31.8836 255.831 27.7471 255.831 22.24H253.831C253.831 27.6929 253.186 31.3964 252.032 33.5232L253.79 34.4768ZM255.831 22.24C255.831 16.7714 255.197 12.6557 253.79 10.0632L252.032 11.0168C253.186 13.1443 253.831 16.8286 253.831 22.24H255.831ZM253.797 10.0749C253.107 8.76263 252.196 7.73015 251.046 7.03063C249.895 6.33079 248.564 6 247.091 6V8C248.258 8 249.217 8.25921 250.007 8.73937C250.797 9.21985 251.476 9.95736 252.026 11.0051L253.797 10.0749ZM299.286 19.72L298.647 20.4892L299.286 19.72ZM299.106 39.64L299.747 40.4073L299.748 40.4064L299.106 39.64ZM275.646 43H274.646V44H275.646V43ZM275.646 1.48V0.479998H274.646V1.48H275.646ZM298.866 1.48L299.857 1.61392L300.01 0.479998H298.866V1.48ZM297.966 8.14V9.14H298.84L298.957 8.27392L297.966 8.14ZM284.286 8.14V7.14H283.286V8.14H284.286ZM284.286 16.48H283.286V17.48H284.286V16.48ZM292.506 34.96L291.786 34.2659L291.785 34.2664L292.506 34.96ZM292.506 24.34L291.773 25.0205L291.786 25.034L291.799 25.0471L292.506 24.34ZM284.286 22.66V21.66H283.286V22.66H284.286ZM284.286 36.58H283.286V37.58H284.286V36.58ZM288.186 17.48C292.849 17.48 296.289 18.5301 298.647 20.4892L299.925 18.9508C297.083 16.5899 293.123 15.48 288.186 15.48V17.48ZM298.647 20.4892C300.959 22.4104 302.186 25.3115 302.186 29.38H304.186C304.186 24.8885 302.812 21.3496 299.925 18.9508L298.647 20.4892ZM302.186 29.38C302.186 33.735 300.895 36.8351 298.463 38.8736L299.748 40.4064C302.756 37.8849 304.186 34.145 304.186 29.38H302.186ZM298.464 38.8727C296.019 40.9168 292.574 42 288.006 42V44C292.878 44 296.833 42.8432 299.747 40.4073L298.464 38.8727ZM288.006 42H275.646V44H288.006V42ZM276.646 43V1.48H274.646V43H276.646ZM275.646 2.48H298.866V0.479998H275.646V2.48ZM297.875 1.34608L296.975 8.00608L298.957 8.27392L299.857 1.61392L297.875 1.34608ZM297.966 7.14H284.286V9.14H297.966V7.14ZM283.286 8.14V16.48H285.286V8.14H283.286ZM284.286 17.48H288.186V15.48H284.286V17.48ZM287.646 37.58C289.99 37.58 291.925 37.0053 293.226 35.6536L291.785 34.2664C291.007 35.0747 289.701 35.58 287.646 35.58V37.58ZM293.226 35.6541C294.569 34.261 295.126 32.1262 295.126 29.5H293.126C293.126 31.9138 292.603 33.419 291.786 34.2659L293.226 35.6541ZM295.126 29.5C295.126 27.016 294.561 24.981 293.213 23.6329L291.799 25.0471C292.611 25.859 293.126 27.264 293.126 29.5H295.126ZM293.239 23.6595C291.93 22.2503 289.921 21.66 287.466 21.66V23.66C289.651 23.66 291.002 24.1897 291.773 25.0205L293.239 23.6595ZM287.466 21.66H284.286V23.66H287.466V21.66ZM283.286 22.66V36.58H285.286V22.66H283.286ZM284.286 37.58H287.646V35.58H284.286V37.58ZM337.33 4.84L337.954 4.05913L337.33 4.84ZM337.39 25.3L338.033 26.0655L338.039 26.06L337.39 25.3ZM322.63 28.78V27.78H321.63V28.78H322.63ZM322.63 43V44H323.63V43H322.63ZM313.99 43H312.99V44H313.99V43ZM313.99 1.48V0.479998H312.99V1.48H313.99ZM330.85 20.68L331.545 21.399L330.85 20.68ZM322.63 7.72V6.72H321.63V7.72H322.63ZM322.63 22.42H321.63V23.42H322.63V22.42ZM325.27 2.48C330.384 2.48 334.148 3.57521 336.705 5.62087L337.954 4.05913C334.911 1.62479 330.635 0.479998 325.27 0.479998V2.48ZM336.705 5.62087C339.214 7.62816 340.53 10.6277 340.53 14.8H342.53C342.53 10.1723 341.045 6.53183 337.954 4.05913L336.705 5.62087ZM340.53 14.8C340.53 19.235 339.219 22.4202 336.74 24.54L338.039 26.06C341.08 23.4598 342.53 19.645 342.53 14.8H340.53ZM336.746 24.5345C334.22 26.658 330.675 27.78 325.99 27.78V29.78C330.984 29.78 335.039 28.582 338.033 26.0655L336.746 24.5345ZM325.99 27.78H322.63V29.78H325.99V27.78ZM321.63 28.78V43H323.63V28.78H321.63ZM322.63 42H313.99V44H322.63V42ZM314.99 43V1.48H312.99V43H314.99ZM313.99 2.48H325.27V0.479998H313.99V2.48ZM325.39 23.42C327.97 23.42 330.087 22.8078 331.545 21.399L330.155 19.961C329.212 20.8722 327.689 21.42 325.39 21.42V23.42ZM331.545 21.399C333.032 19.961 333.65 17.6873 333.65 14.86H331.65C331.65 17.4727 331.067 19.079 330.155 19.961L331.545 21.399ZM333.65 14.86C333.65 12.2746 333.014 10.1618 331.545 8.74101L330.155 10.179C331.085 11.0782 331.65 12.5654 331.65 14.86H333.65ZM331.545 8.74101C330.085 7.32969 327.945 6.72 325.33 6.72V8.72C327.675 8.72 329.215 9.27031 330.155 10.179L331.545 8.74101ZM325.33 6.72H322.63V8.72H325.33V6.72ZM321.63 7.72V22.42H323.63V7.72H321.63ZM322.63 23.42H325.39V21.42H322.63V23.42ZM368.859 43L367.882 43.2129L368.054 44H368.859V43ZM366.819 33.64L367.796 33.4271L367.625 32.64H366.819V33.64ZM355.419 33.64V32.64H354.614L354.442 33.4271L355.419 33.64ZM353.379 43V44H354.185L354.356 43.2129L353.379 43ZM344.619 43L343.655 42.7352L343.307 44H344.619V43ZM356.019 1.48V0.479998H355.257L355.055 1.21523L356.019 1.48ZM366.459 1.48L367.424 1.21653L367.223 0.479998H366.459V1.48ZM377.799 43V44H379.109L378.764 42.7365L377.799 43ZM356.859 27.28L355.882 27.0653L355.615 28.28H356.859V27.28ZM365.379 27.28V28.28H366.623L366.356 27.0653L365.379 27.28ZM361.119 7.9L362.096 7.68531H360.142L361.119 7.9ZM369.836 42.7871L367.796 33.4271L365.842 33.853L367.882 43.2129L369.836 42.7871ZM366.819 32.64H355.419V34.64H366.819V32.64ZM354.442 33.4271L352.402 42.7871L354.356 43.2129L356.396 33.853L354.442 33.4271ZM353.379 42H344.619V44H353.379V42ZM345.583 43.2648L356.983 1.74477L355.055 1.21523L343.655 42.7352L345.583 43.2648ZM356.019 2.48H366.459V0.479998H356.019V2.48ZM365.494 1.74347L376.834 43.2635L378.764 42.7365L367.424 1.21653L365.494 1.74347ZM377.799 42H368.859V44H377.799V42ZM356.859 28.28H365.379V26.28H356.859V28.28ZM366.356 27.0653L362.096 7.68531L360.142 8.11469L364.402 27.4947L366.356 27.0653ZM360.142 7.68531L355.882 27.0653L357.836 27.4947L362.096 8.11469L360.142 7.68531ZM431.023 1.48L431.925 1.91236L432.611 0.479998H431.023V1.48ZM421.903 20.5L421.001 20.0676L420.801 20.4857L420.99 20.9088L421.903 20.5ZM431.983 43V44H433.527L432.895 42.5912L431.983 43ZM422.743 43L421.821 43.3878L422.079 44H422.743V43ZM414.943 24.46L415.865 24.0722L415.607 23.46H414.943V24.46ZM411.523 24.46V23.46H410.523V24.46H411.523ZM411.523 43V44H412.523V43H411.523ZM403.603 43H402.603V44H403.603V43ZM403.603 24.46H404.603V23.46H403.603V24.46ZM400.063 24.46V23.46H399.401L399.142 24.0697L400.063 24.46ZM392.203 43V44H392.865L393.124 43.3903L392.203 43ZM383.143 43L382.23 42.5912L381.599 44H383.143V43ZM393.223 20.5L394.135 20.9088L394.325 20.4857L394.125 20.0676L393.223 20.5ZM384.103 1.48V0.479998H382.514L383.201 1.91236L384.103 1.48ZM392.563 1.48L393.47 1.05908L393.201 0.479998H392.563V1.48ZM400.303 18.16L399.396 18.5809L399.664 19.16H400.303V18.16ZM403.603 18.16V19.16H404.603V18.16H403.603ZM403.603 1.48V0.479998H402.603V1.48H403.603ZM411.523 1.48H412.523V0.479998H411.523V1.48ZM411.523 18.16H410.523V19.16H411.523V18.16ZM414.823 18.16V19.16H415.457L415.727 18.5863L414.823 18.16ZM422.683 1.48V0.479998H422.049L421.778 1.05373L422.683 1.48ZM430.121 1.04764L421.001 20.0676L422.805 20.9324L431.925 1.91236L430.121 1.04764ZM420.99 20.9088L431.07 43.4088L432.895 42.5912L422.815 20.0912L420.99 20.9088ZM431.983 42H422.743V44H431.983V42ZM423.665 42.6122L415.865 24.0722L414.021 24.8478L421.821 43.3878L423.665 42.6122ZM414.943 23.46H411.523V25.46H414.943V23.46ZM410.523 24.46V43H412.523V24.46H410.523ZM411.523 42H403.603V44H411.523V42ZM404.603 43V24.46H402.603V43H404.603ZM403.603 23.46H400.063V25.46H403.603V23.46ZM399.142 24.0697L391.282 42.6097L393.124 43.3903L400.983 24.8503L399.142 24.0697ZM392.203 42H383.143V44H392.203V42ZM384.055 43.4088L394.135 20.9088L392.31 20.0912L382.23 42.5912L384.055 43.4088ZM394.125 20.0676L385.005 1.04764L383.201 1.91236L392.321 20.9324L394.125 20.0676ZM384.103 2.48H392.563V0.479998H384.103V2.48ZM391.656 1.90092L399.396 18.5809L401.21 17.7391L393.47 1.05908L391.656 1.90092ZM400.303 19.16H403.603V17.16H400.303V19.16ZM404.603 18.16V1.48H402.603V18.16H404.603ZM403.603 2.48H411.523V0.479998H403.603V2.48ZM410.523 1.48V18.16H412.523V1.48H410.523ZM411.523 19.16H414.823V17.16H411.523V19.16ZM415.727 18.5863L423.587 1.90627L421.778 1.05373L413.918 17.7337L415.727 18.5863ZM422.683 2.48H431.023V0.479998H422.683V2.48ZM464.184 1.48L465.174 1.62142L465.337 0.479998H464.184V1.48ZM463.284 7.78V8.78H464.151L464.274 7.92142L463.284 7.78ZM450.024 7.78V6.78H449.024V7.78H450.024ZM450.024 18.76H449.024V19.76H450.024V18.76ZM461.604 18.76H462.604V17.76H461.604V18.76ZM461.604 25V26H462.604V25H461.604ZM450.024 25V24H449.024V25H450.024ZM450.024 36.64H449.024V37.64H450.024V36.64ZM464.184 36.64H465.184V35.64H464.184V36.64ZM464.184 43V44H465.184V43H464.184ZM441.384 43H440.384V44H441.384V43ZM441.384 1.48V0.479998H440.384V1.48H441.384ZM463.194 1.33858L462.294 7.63858L464.274 7.92142L465.174 1.62142L463.194 1.33858ZM463.284 6.78H450.024V8.78H463.284V6.78ZM449.024 7.78V18.76H451.024V7.78H449.024ZM450.024 19.76H461.604V17.76H450.024V19.76ZM460.604 18.76V25H462.604V18.76H460.604ZM461.604 24H450.024V26H461.604V24ZM449.024 25V36.64H451.024V25H449.024ZM450.024 37.64H464.184V35.64H450.024V37.64ZM463.184 36.64V43H465.184V36.64H463.184ZM464.184 42H441.384V44H464.184V42ZM442.384 43V1.48H440.384V43H442.384ZM441.384 2.48H464.184V0.479998H441.384V2.48ZM496.021 43H495.021V44H496.021V43ZM496.021 24.76H497.021V23.76H496.021V24.76ZM484.501 24.76V23.76H483.501V24.76H484.501ZM484.501 43V44H485.501V43H484.501ZM475.861 43H474.861V44H475.861V43ZM475.861 1.48V0.479998H474.861V1.48H475.861ZM484.501 1.48H485.501V0.479998H484.501V1.48ZM484.501 17.92H483.501V18.92H484.501V17.92ZM496.021 17.92V18.92H497.021V17.92H496.021ZM496.021 1.48V0.479998H495.021V1.48H496.021ZM504.661 1.48H505.661V0.479998H504.661V1.48ZM504.661 43V44H505.661V43H504.661ZM497.021 43V24.76H495.021V43H497.021ZM496.021 23.76H484.501V25.76H496.021V23.76ZM483.501 24.76V43H485.501V24.76H483.501ZM484.501 42H475.861V44H484.501V42ZM476.861 43V1.48H474.861V43H476.861ZM475.861 2.48H484.501V0.479998H475.861V2.48ZM483.501 1.48V17.92H485.501V1.48H483.501ZM484.501 18.92H496.021V16.92H484.501V18.92ZM497.021 17.92V1.48H495.021V17.92H497.021ZM496.021 2.48H504.661V0.479998H496.021V2.48ZM503.661 1.48V43H505.661V1.48H503.661ZM504.661 42H496.021V44H504.661V42ZM546.752 43V44H547.752V43H546.752ZM538.412 43H537.412V44H538.412V43ZM539.492 10.18L540.484 10.304L538.544 9.86117L539.492 10.18ZM528.452 43V44H529.17L529.399 43.3188L528.452 43ZM518.072 43H517.072V44H518.072V43ZM518.072 1.48V0.479998H517.072V1.48H518.072ZM526.412 1.48H527.412V0.479998H526.412V1.48ZM526.112 26.86L525.115 26.7741L525.115 26.782L525.114 26.79L526.112 26.86ZM525.332 34.3L524.34 34.1669L526.279 34.6204L525.332 34.3ZM536.432 1.48V0.479998H535.714L535.484 1.15962L536.432 1.48ZM546.752 1.48H547.752V0.479998H546.752V1.48ZM546.752 42H538.412V44H546.752V42ZM539.412 43V26.14H537.412V43H539.412ZM539.412 26.14C539.412 21.3083 539.768 16.0303 540.484 10.304L538.499 10.056C537.775 15.8497 537.412 21.2116 537.412 26.14H539.412ZM538.544 9.86117L527.504 42.6812L529.399 43.3188L540.439 10.4988L538.544 9.86117ZM528.452 42H518.072V44H528.452V42ZM519.072 43V1.48H517.072V43H519.072ZM518.072 2.48H526.412V0.479998H518.072V2.48ZM525.412 1.48V18.58H527.412V1.48H525.412ZM525.412 18.58C525.412 21.7611 525.312 24.491 525.115 26.7741L527.108 26.9459C527.311 24.589 527.412 21.7989 527.412 18.58H525.412ZM525.114 26.79C524.956 29.0455 524.698 31.5042 524.34 34.1669L526.323 34.4331C526.685 31.7358 526.947 29.2345 527.109 26.93L525.114 26.79ZM526.279 34.6204L537.379 1.80038L535.484 1.15962L524.384 33.9796L526.279 34.6204ZM536.432 2.48H546.752V0.479998H536.432V2.48ZM545.752 1.48V43H547.752V1.48H545.752ZM582.965 1.48L583.955 1.62142L584.118 0.479998H582.965V1.48ZM582.065 7.78V8.78H582.933L583.055 7.92142L582.065 7.78ZM568.805 7.78V6.78H567.805V7.78H568.805ZM568.805 18.76H567.805V19.76H568.805V18.76ZM580.385 18.76H581.385V17.76H580.385V18.76ZM580.385 25V26H581.385V25H580.385ZM568.805 25V24H567.805V25H568.805ZM568.805 36.64H567.805V37.64H568.805V36.64ZM582.965 36.64H583.965V35.64H582.965V36.64ZM582.965 43V44H583.965V43H582.965ZM560.165 43H559.165V44H560.165V43ZM560.165 1.48V0.479998H559.165V1.48H560.165ZM581.975 1.33858L581.075 7.63858L583.055 7.92142L583.955 1.62142L581.975 1.33858ZM582.065 6.78H568.805V8.78H582.065V6.78ZM567.805 7.78V18.76H569.805V7.78H567.805ZM568.805 19.76H580.385V17.76H568.805V19.76ZM579.385 18.76V25H581.385V18.76H579.385ZM580.385 24H568.805V26H580.385V24ZM567.805 25V36.64H569.805V25H567.805ZM568.805 37.64H582.965V35.64H568.805V37.64ZM581.965 36.64V43H583.965V36.64H581.965ZM582.965 42H560.165V44H582.965V42ZM561.165 43V1.48H559.165V43H561.165ZM560.165 2.48H582.965V0.479998H560.165V2.48Z" fill="#2A9D90" mask="url(#path-1-outside-1_2335_12052)"/>
</svg>