<svg xmlns="http://www.w3.org/2000/svg" width="312" height="72" viewBox="0 0 312 72" fill="none">
<g opacity="0.15">
<mask id="path-1-inside-1_2343_429" fill="white">
<path d="M160.3 0.522998L153.062 15.469L161.052 33H154.519L148.174 18.289H145.26V33H139.62V18.289H136.706L130.267 33H123.828L131.865 15.469L124.627 0.522998H130.643L136.847 13.73H139.62V0.522998H145.26V13.73H148.08L154.378 0.522998H160.3ZM186.248 0.522998L178.775 15.469L187.047 33H180.467L173.652 18.336H170.315V33H164.205V0.522998H170.315V13.683H173.746L180.279 0.522998H186.248ZM22.6167 38.523V71H16.5067V43.364H6.82468V71H0.71468V38.523H22.6167ZM37.4929 38.523C41.5349 38.523 44.6212 39.4003 46.7519 41.155C48.9139 42.8783 49.9949 45.4477 49.9949 48.863C49.9949 52.435 48.9139 55.1297 46.7519 56.947C44.6212 58.733 41.6759 59.626 37.9159 59.626H35.1899V71H29.0799V38.523H37.4929ZM37.5399 55.067C39.6392 55.067 41.1902 54.6127 42.1929 53.704C43.1956 52.764 43.6969 51.1503 43.6969 48.863C43.6969 46.8263 43.1956 45.338 42.1929 44.398C41.1902 43.458 39.6392 42.988 37.5399 42.988H35.1899V55.067H37.5399ZM71.5294 38.523L70.8714 43.035H60.2964V52.247H69.5554V56.712H60.2964V66.441H71.6234V71H54.1864V38.523H71.5294ZM87.4572 37.818C91.5306 37.818 94.7109 39.2593 96.9982 42.142C99.2856 44.9933 100.429 49.192 100.429 54.738C100.429 60.2213 99.2856 64.42 96.9982 67.334C94.7109 70.248 91.5306 71.705 87.4572 71.705C83.4152 71.705 80.2506 70.2637 77.9632 67.381C75.6759 64.4983 74.5322 60.2997 74.5322 54.785C74.5322 49.333 75.6759 45.15 77.9632 42.236C80.2506 39.2907 83.4152 37.818 87.4572 37.818ZM87.4572 42.471C85.2952 42.471 83.6659 43.4267 82.5692 45.338C81.4726 47.2493 80.9242 50.3983 80.9242 54.785C80.9242 59.1403 81.4726 62.2737 82.5692 64.185C83.6972 66.0963 85.3266 67.052 87.4572 67.052C89.6819 67.052 91.3269 66.112 92.3922 64.232C93.4889 62.3207 94.0372 59.156 94.0372 54.738C94.0372 50.3827 93.4889 47.2493 92.3922 45.338C91.3269 43.4267 89.6819 42.471 87.4572 42.471ZM114.808 50.414C118.505 50.414 121.357 51.26 123.362 52.952C125.367 54.6127 126.37 57.1037 126.37 60.425C126.37 63.997 125.32 66.6603 123.221 68.415C121.153 70.1383 118.27 71 114.573 71H105.455V38.523H123.08L122.422 43.27H111.565V50.414H114.808ZM114.432 66.441C116.312 66.441 117.706 66.0023 118.615 65.125C119.524 64.2163 119.978 62.681 119.978 60.519C119.978 58.545 119.508 57.1037 118.568 56.195C117.659 55.2863 116.249 54.832 114.338 54.832H111.565V66.441H114.432ZM139.02 38.523C143.062 38.523 146.149 39.4003 148.279 41.155C150.441 42.8783 151.522 45.4477 151.522 48.863C151.522 52.435 150.441 55.1297 148.279 56.947C146.149 58.733 143.203 59.626 139.443 59.626H136.717V71H130.607V38.523H139.02ZM139.067 55.067C141.167 55.067 142.718 54.6127 143.72 53.704C144.723 52.764 145.224 51.1503 145.224 48.863C145.224 46.8263 144.723 45.338 143.72 44.398C142.718 43.458 141.167 42.988 139.067 42.988H136.717V55.067H139.067ZM168.659 71L166.873 63.433H157.473L155.687 71H149.53L158.554 38.523H165.98L174.957 71H168.659ZM158.507 58.827H165.839L162.173 43.176L158.507 58.827ZM211.201 38.523L203.963 53.469L211.953 71H205.42L199.075 56.289H196.161V71H190.521V56.289H187.607L181.168 71H174.729L182.766 53.469L175.528 38.523H181.544L187.748 51.73H190.521V38.523H196.161V51.73H198.981L205.279 38.523H211.201ZM232.449 38.523L231.791 43.035H221.216V52.247H230.475V56.712H221.216V66.441H232.543V71H215.106V38.523H232.449ZM253.345 71V56.43H243.569V71H237.459V38.523H243.569V51.589H253.345V38.523H259.455V71H253.345ZM287.911 71H281.989V57.041C281.989 52.8423 282.255 48.7533 282.788 44.774L273.388 71H265.962V38.523H271.884V52.623C271.884 55.1297 271.805 57.229 271.649 58.921C271.523 60.613 271.335 62.5557 271.085 64.749L280.579 38.523H287.911V71ZM311.762 38.523L311.104 43.035H300.529V52.247H309.788V56.712H300.529V66.441H311.856V71H294.419V38.523H311.762Z"/>
</mask>
<path d="M160.3 0.522998L160.849 0.789074L161.274 -0.0874691H160.3V0.522998ZM153.062 15.469L152.512 15.2029L152.387 15.4611L152.506 15.7222L153.062 15.469ZM161.052 33V33.6105H162.001L161.607 32.7468L161.052 33ZM154.519 33L153.958 33.2418L154.117 33.6105H154.519V33ZM148.174 18.289L148.734 18.0472L148.575 17.6785H148.174V18.289ZM145.26 18.289V17.6785H144.649V18.289H145.26ZM145.26 33V33.6105H145.87V33H145.26ZM139.62 33H139.009V33.6105H139.62V33ZM139.62 18.289H140.23V17.6785H139.62V18.289ZM136.706 18.289V17.6785H136.307L136.147 18.0442L136.706 18.289ZM130.267 33V33.6105H130.666L130.826 33.2448L130.267 33ZM123.828 33L123.273 32.7456L122.876 33.6105H123.828V33ZM131.865 15.469L132.42 15.7234L132.54 15.4619L132.414 15.2029L131.865 15.469ZM124.627 0.522998V-0.0874691H123.653L124.077 0.789074L124.627 0.522998ZM130.643 0.522998L131.195 0.263442L131.031 -0.0874691H130.643V0.522998ZM136.847 13.73L136.294 13.9896L136.459 14.3405H136.847V13.73ZM139.62 13.73V14.3405H140.23V13.73H139.62ZM139.62 0.522998V-0.0874691H139.009V0.522998H139.62ZM145.26 0.522998H145.87V-0.0874691H145.26V0.522998ZM145.26 13.73H144.649V14.3405H145.26V13.73ZM148.08 13.73V14.3405H148.465L148.631 13.9928L148.08 13.73ZM154.378 0.522998V-0.0874691H153.993L153.827 0.260233L154.378 0.522998ZM159.75 0.256922L152.512 15.2029L153.611 15.7351L160.849 0.789074L159.75 0.256922ZM152.506 15.7222L160.496 33.2532L161.607 32.7468L153.617 15.2158L152.506 15.7222ZM161.052 32.3895H154.519V33.6105H161.052V32.3895ZM155.079 32.7582L148.734 18.0472L147.613 18.5308L153.958 33.2418L155.079 32.7582ZM148.174 17.6785H145.26V18.8995H148.174V17.6785ZM144.649 18.289V33H145.87V18.289H144.649ZM145.26 32.3895H139.62V33.6105H145.26V32.3895ZM140.23 33V18.289H139.009V33H140.23ZM139.62 17.6785H136.706V18.8995H139.62V17.6785ZM136.147 18.0442L129.708 32.7552L130.826 33.2448L137.265 18.5338L136.147 18.0442ZM130.267 32.3895H123.828V33.6105H130.267V32.3895ZM124.383 33.2544L132.42 15.7234L131.31 15.2146L123.273 32.7456L124.383 33.2544ZM132.414 15.2029L125.176 0.256922L124.077 0.789074L131.315 15.7351L132.414 15.2029ZM124.627 1.13346H130.643V-0.0874691H124.627V1.13346ZM130.09 0.782554L136.294 13.9896L137.399 13.4704L131.195 0.263442L130.09 0.782554ZM136.847 14.3405H139.62V13.1195H136.847V14.3405ZM140.23 13.73V0.522998H139.009V13.73H140.23ZM139.62 1.13346H145.26V-0.0874691H139.62V1.13346ZM144.649 0.522998V13.73H145.87V0.522998H144.649ZM145.26 14.3405H148.08V13.1195H145.26V14.3405ZM148.631 13.9928L154.929 0.785763L153.827 0.260233L147.529 13.4672L148.631 13.9928ZM154.378 1.13346H160.3V-0.0874691H154.378V1.13346ZM186.248 0.522998L186.794 0.796007L187.236 -0.0874691H186.248V0.522998ZM178.775 15.469L178.229 15.196L178.096 15.4613L178.223 15.7295L178.775 15.469ZM187.047 33V33.6105H188.01L187.599 32.7395L187.047 33ZM180.467 33L179.913 33.2573L180.077 33.6105H180.467V33ZM173.652 18.336L174.206 18.0787L174.041 17.7255H173.652V18.336ZM170.315 18.336V17.7255H169.704V18.336H170.315ZM170.315 33V33.6105H170.925V33H170.315ZM164.205 33H163.594V33.6105H164.205V33ZM164.205 0.522998V-0.0874691H163.594V0.522998H164.205ZM170.315 0.522998H170.925V-0.0874691H170.315V0.522998ZM170.315 13.683H169.704V14.2935H170.315V13.683ZM173.746 13.683V14.2935H174.124L174.293 13.9544L173.746 13.683ZM180.279 0.522998V-0.0874691H179.9L179.732 0.251552L180.279 0.522998ZM185.702 0.249989L178.229 15.196L179.321 15.742L186.794 0.796007L185.702 0.249989ZM178.223 15.7295L186.495 33.2605L187.599 32.7395L179.327 15.2085L178.223 15.7295ZM187.047 32.3895H180.467V33.6105H187.047V32.3895ZM181.021 32.7427L174.206 18.0787L173.098 18.5933L179.913 33.2573L181.021 32.7427ZM173.652 17.7255H170.315V18.9465H173.652V17.7255ZM169.704 18.336V33H170.925V18.336H169.704ZM170.315 32.3895H164.205V33.6105H170.315V32.3895ZM164.815 33V0.522998H163.594V33H164.815ZM164.205 1.13346H170.315V-0.0874691H164.205V1.13346ZM169.704 0.522998V13.683H170.925V0.522998H169.704ZM170.315 14.2935H173.746V13.0725H170.315V14.2935ZM174.293 13.9544L180.826 0.794444L179.732 0.251552L173.199 13.4116L174.293 13.9544ZM180.279 1.13346H186.248V-0.0874691H180.279V1.13346ZM22.6167 38.523H23.2271V37.9125H22.6167V38.523ZM22.6167 71V71.6105H23.2271V71H22.6167ZM16.5067 71H15.8962V71.6105H16.5067V71ZM16.5067 43.364H17.1171V42.7535H16.5067V43.364ZM6.82468 43.364V42.7535H6.21421V43.364H6.82468ZM6.82468 71V71.6105H7.43515V71H6.82468ZM0.71468 71H0.104213V71.6105H0.71468V71ZM0.71468 38.523V37.9125H0.104213V38.523H0.71468ZM22.0062 38.523V71H23.2271V38.523H22.0062ZM22.6167 70.3895H16.5067V71.6105H22.6167V70.3895ZM17.1171 71V43.364H15.8962V71H17.1171ZM16.5067 42.7535H6.82468V43.9745H16.5067V42.7535ZM6.21421 43.364V71H7.43515V43.364H6.21421ZM6.82468 70.3895H0.71468V71.6105H6.82468V70.3895ZM1.32515 71V38.523H0.104213V71H1.32515ZM0.71468 39.1335H22.6167V37.9125H0.71468V39.1335ZM46.7519 41.155L46.3638 41.6263L46.3714 41.6324L46.7519 41.155ZM46.7519 56.947L47.1441 57.4148L47.1447 57.4143L46.7519 56.947ZM35.1899 59.626V59.0155H34.5794V59.626H35.1899ZM35.1899 71V71.6105H35.8004V71H35.1899ZM29.0799 71H28.4694V71.6105H29.0799V71ZM29.0799 38.523V37.9125H28.4694V38.523H29.0799ZM42.1929 53.704L42.6029 54.1564L42.6104 54.1494L42.1929 53.704ZM42.1929 44.398L42.6104 43.9526L42.1929 44.398ZM35.1899 42.988V42.3775H34.5794V42.988H35.1899ZM35.1899 55.067H34.5794V55.6775H35.1899V55.067ZM37.4929 39.1335C41.4571 39.1335 44.3833 39.9952 46.3638 41.6262L47.14 40.6838C44.8592 38.8055 41.6127 37.9125 37.4929 37.9125V39.1335ZM46.3714 41.6324C48.3542 43.2129 49.3844 45.5853 49.3844 48.863H50.6054C50.6054 45.31 49.4736 42.5438 47.1324 40.6776L46.3714 41.6324ZM49.3844 48.863C49.3844 52.3064 48.3479 54.8079 46.3591 56.4797L47.1447 57.4143C49.4799 55.4514 50.6054 52.5636 50.6054 48.863H49.3844ZM46.3598 56.4792C44.3724 58.145 41.5831 59.0155 37.9159 59.0155V60.2365C41.7687 60.2365 44.8701 59.321 47.1441 57.4148L46.3598 56.4792ZM37.9159 59.0155H35.1899V60.2365H37.9159V59.0155ZM34.5794 59.626V71H35.8004V59.626H34.5794ZM35.1899 70.3895H29.0799V71.6105H35.1899V70.3895ZM29.6904 71V38.523H28.4694V71H29.6904ZM29.0799 39.1335H37.4929V37.9125H29.0799V39.1335ZM37.5399 55.6775C39.7105 55.6775 41.44 55.2102 42.6029 54.1563L41.783 53.2517C40.9405 54.0151 39.568 54.4565 37.5399 54.4565V55.6775ZM42.6104 54.1494C43.7971 53.0369 44.3074 51.212 44.3074 48.863H43.0864C43.0864 51.0887 42.5941 52.4911 41.7754 53.2586L42.6104 54.1494ZM44.3074 48.863C44.3074 46.7392 43.7852 45.054 42.6104 43.9526L41.7754 44.8434C42.606 45.622 43.0864 46.9135 43.0864 48.863H44.3074ZM42.6104 43.9526C41.4476 42.8625 39.7149 42.3775 37.5399 42.3775V43.5985C39.5636 43.5985 40.9329 44.0535 41.7754 44.8434L42.6104 43.9526ZM37.5399 42.3775H35.1899V43.5985H37.5399V42.3775ZM34.5794 42.988V55.067H35.8004V42.988H34.5794ZM35.1899 55.6775H37.5399V54.4565H35.1899V55.6775ZM71.5294 38.523L72.1334 38.6111L72.2353 37.9125H71.5294V38.523ZM70.8714 43.035V43.6455H71.3993L71.4754 43.1231L70.8714 43.035ZM60.2964 43.035V42.4245H59.6859V43.035H60.2964ZM60.2964 52.247H59.6859V52.8575H60.2964V52.247ZM69.5554 52.247H70.1658V51.6365H69.5554V52.247ZM69.5554 56.712V57.3225H70.1658V56.712H69.5554ZM60.2964 56.712V56.1015H59.6859V56.712H60.2964ZM60.2964 66.441H59.6859V67.0515H60.2964V66.441ZM71.6234 66.441H72.2338V65.8305H71.6234V66.441ZM71.6234 71V71.6105H72.2338V71H71.6234ZM54.1864 71H53.5759V71.6105H54.1864V71ZM54.1864 38.523V37.9125H53.5759V38.523H54.1864ZM70.9253 38.4349L70.2673 42.9469L71.4754 43.1231L72.1334 38.6111L70.9253 38.4349ZM70.8714 42.4245H60.2964V43.6455H70.8714V42.4245ZM59.6859 43.035V52.247H60.9068V43.035H59.6859ZM60.2964 52.8575H69.5554V51.6365H60.2964V52.8575ZM68.9449 52.247V56.712H70.1658V52.247H68.9449ZM69.5554 56.1015H60.2964V57.3225H69.5554V56.1015ZM59.6859 56.712V66.441H60.9068V56.712H59.6859ZM60.2964 67.0515H71.6234V65.8305H60.2964V67.0515ZM71.0129 66.441V71H72.2338V66.441H71.0129ZM71.6234 70.3895H54.1864V71.6105H71.6234V70.3895ZM54.7968 71V38.523H53.5759V71H54.7968ZM54.1864 39.1335H71.5294V37.9125H54.1864V39.1335ZM96.9982 42.142L96.52 42.5215L96.522 42.524L96.9982 42.142ZM96.9982 67.334L96.518 66.9571L96.9982 67.334ZM77.9632 67.381L78.4414 67.0015L77.9632 67.381ZM77.9632 42.236L78.4434 42.6129L78.4454 42.6104L77.9632 42.236ZM82.5692 45.338L83.0987 45.6418L82.5692 45.338ZM82.5692 64.185L82.0397 64.4888L82.0435 64.4953L82.5692 64.185ZM92.3922 64.232L91.8627 63.9282L91.8611 63.931L92.3922 64.232ZM92.3922 45.338L91.8589 45.6352L91.8627 45.6418L92.3922 45.338ZM87.4572 38.4285C91.367 38.4285 94.3619 39.8016 96.52 42.5215L97.4764 41.7625C95.0599 38.717 91.6941 37.2075 87.4572 37.2075V38.4285ZM96.522 42.524C98.6876 45.2235 99.8188 49.2624 99.8188 54.738H101.04C101.04 49.1216 99.8836 44.7632 97.4744 41.76L96.522 42.524ZM99.8188 54.738C99.8188 60.1477 98.6889 64.1914 96.518 66.9571L97.4784 67.7109C99.8822 64.6486 101.04 60.295 101.04 54.738H99.8188ZM96.518 66.9571C94.359 69.7076 91.3645 71.0945 87.4572 71.0945V72.3155C91.6966 72.3155 95.0628 70.7884 97.4784 67.7109L96.518 66.9571ZM87.4572 71.0945C83.5806 71.0945 80.6005 69.7226 78.4414 67.0015L77.485 67.7605C79.9006 70.8047 83.2499 72.3155 87.4572 72.3155V71.0945ZM78.4414 67.0015C76.2732 64.269 75.1427 60.2276 75.1427 54.785H73.9218C73.9218 60.3717 75.0786 64.7277 77.485 67.7605L78.4414 67.0015ZM75.1427 54.785C75.1427 49.4076 76.2721 45.3791 78.4434 42.6129L77.483 41.8591C75.0796 44.9209 73.9218 49.2584 73.9218 54.785H75.1427ZM78.4454 42.6104C80.6063 39.8278 83.5855 38.4285 87.4572 38.4285V37.2075C83.2449 37.2075 79.8948 38.7535 77.4811 41.8616L78.4454 42.6104ZM87.4572 41.8605C85.0714 41.8605 83.2426 42.9377 82.0397 45.0342L83.0987 45.6418C84.0891 43.9156 85.5191 43.0815 87.4572 43.0815V41.8605ZM82.0397 45.0342C80.8592 47.0916 80.3138 50.3781 80.3138 54.785H81.5347C81.5347 50.4186 82.0859 47.407 83.0987 45.6418L82.0397 45.0342ZM80.3138 54.785C80.3138 59.1616 80.8595 62.4318 82.0397 64.4888L83.0987 63.8812C82.0856 62.1155 81.5347 59.1191 81.5347 54.785H80.3138ZM82.0435 64.4953C83.2757 66.5831 85.0997 67.6625 87.4572 67.6625V66.4415C85.5534 66.4415 84.1188 65.6095 83.095 63.8747L82.0435 64.4953ZM87.4572 67.6625C89.8937 67.6625 91.7457 66.6111 92.9233 64.533L91.8611 63.931C90.9081 65.6129 89.4701 66.4415 87.4572 66.4415V67.6625ZM92.9217 64.5358C94.1024 62.478 94.6477 59.1753 94.6477 54.738H93.4268C93.4268 59.1367 92.8753 62.1634 91.8627 63.9282L92.9217 64.5358ZM94.6477 54.738C94.6477 50.3614 94.102 47.0912 92.9217 45.0342L91.8627 45.6418C92.8758 47.4075 93.4268 50.4039 93.4268 54.738H94.6477ZM92.9255 45.0408C92.3475 44.0039 91.597 43.2007 90.6661 42.6599C89.7358 42.1194 88.6589 41.8605 87.4572 41.8605V43.0815C88.4803 43.0815 89.3382 43.3004 90.0528 43.7156C90.7669 44.1305 91.3716 44.7608 91.859 45.6352L92.9255 45.0408ZM123.362 52.952L122.968 53.4186L122.973 53.4222L123.362 52.952ZM123.221 68.415L123.612 68.884L123.612 68.8834L123.221 68.415ZM105.455 71H104.844V71.6105H105.455V71ZM105.455 38.523V37.9125H104.844V38.523H105.455ZM123.08 38.523L123.685 38.6068L123.781 37.9125H123.08V38.523ZM122.422 43.27V43.8805H122.954L123.027 43.3538L122.422 43.27ZM111.565 43.27V42.6595H110.954V43.27H111.565ZM111.565 50.414H110.954V51.0245H111.565V50.414ZM118.615 65.125L119.039 65.5642L119.047 65.5567L118.615 65.125ZM118.568 56.195L118.136 56.6267L118.144 56.6339L118.568 56.195ZM111.565 54.832V54.2215H110.954V54.832H111.565ZM111.565 66.441H110.954V67.0515H111.565V66.441ZM114.808 51.0245C118.419 51.0245 121.111 51.8512 122.968 53.4186L123.756 52.4854C121.603 50.6688 118.591 49.8035 114.808 49.8035V51.0245ZM122.973 53.4222C124.801 54.9362 125.759 57.2313 125.759 60.425H126.98C126.98 56.9761 125.934 54.2891 123.751 52.4818L122.973 53.4222ZM125.759 60.425C125.759 63.8754 124.75 66.3412 122.829 67.9466L123.612 68.8834C125.89 66.9795 126.98 64.1186 126.98 60.425H125.759ZM122.83 67.946C120.907 69.5489 118.181 70.3895 114.573 70.3895V71.6105C118.36 71.6105 121.399 70.7278 123.612 68.884L122.83 67.946ZM114.573 70.3895H105.455V71.6105H114.573V70.3895ZM106.065 71V38.523H104.844V71H106.065ZM105.455 39.1335H123.08V37.9125H105.455V39.1335ZM122.475 38.4392L121.817 43.1862L123.027 43.3538L123.685 38.6068L122.475 38.4392ZM122.422 42.6595H111.565V43.8805H122.422V42.6595ZM110.954 43.27V50.414H112.175V43.27H110.954ZM111.565 51.0245H114.808V49.8035H111.565V51.0245ZM114.432 67.0515C116.394 67.0515 117.971 66.5949 119.039 65.5642L118.191 64.6858C117.441 65.4098 116.23 65.8305 114.432 65.8305V67.0515ZM119.047 65.5567C120.127 64.4765 120.588 62.7389 120.588 60.519H119.367C119.367 62.6231 118.92 63.9562 118.183 64.6933L119.047 65.5567ZM120.588 60.519C120.588 58.4631 120.1 56.8272 118.992 55.7561L118.144 56.6339C118.916 57.3802 119.367 58.6269 119.367 60.519H120.588ZM119 55.7633C117.931 54.6947 116.333 54.2215 114.338 54.2215V55.4425C116.166 55.4425 117.388 55.8779 118.136 56.6267L119 55.7633ZM114.338 54.2215H111.565V55.4425H114.338V54.2215ZM110.954 54.832V66.441H112.175V54.832H110.954ZM111.565 67.0515H114.432V65.8305H111.565V67.0515ZM148.279 41.155L147.891 41.6263L147.899 41.6324L148.279 41.155ZM148.279 56.947L148.671 57.4148L148.672 57.4143L148.279 56.947ZM136.717 59.626V59.0155H136.107V59.626H136.717ZM136.717 71V71.6105H137.328V71H136.717ZM130.607 71H129.997V71.6105H130.607V71ZM130.607 38.523V37.9125H129.997V38.523H130.607ZM143.72 53.704L144.13 54.1564L144.138 54.1494L143.72 53.704ZM143.72 44.398L144.138 43.9526L143.72 44.398ZM136.717 42.988V42.3775H136.107V42.988H136.717ZM136.717 55.067H136.107V55.6775H136.717V55.067ZM139.02 39.1335C142.984 39.1335 145.911 39.9952 147.891 41.6262L148.667 40.6838C146.387 38.8055 143.14 37.9125 139.02 37.9125V39.1335ZM147.899 41.6324C149.882 43.2129 150.912 45.5853 150.912 48.863H152.133C152.133 45.31 151.001 42.5438 148.66 40.6776L147.899 41.6324ZM150.912 48.863C150.912 52.3064 149.875 54.8079 147.886 56.4797L148.672 57.4143C151.007 55.4514 152.133 52.5636 152.133 48.863H150.912ZM147.887 56.4792C145.9 58.145 143.11 59.0155 139.443 59.0155V60.2365C143.296 60.2365 146.397 59.321 148.671 57.4148L147.887 56.4792ZM139.443 59.0155H136.717V60.2365H139.443V59.0155ZM136.107 59.626V71H137.328V59.626H136.107ZM136.717 70.3895H130.607V71.6105H136.717V70.3895ZM131.218 71V38.523H129.997V71H131.218ZM130.607 39.1335H139.02V37.9125H130.607V39.1335ZM139.067 55.6775C141.238 55.6775 142.967 55.2102 144.13 54.1563L143.31 53.2517C142.468 54.0151 141.095 54.4565 139.067 54.4565V55.6775ZM144.138 54.1494C145.324 53.0369 145.835 51.212 145.835 48.863H144.614C144.614 51.0887 144.121 52.4911 143.303 53.2586L144.138 54.1494ZM145.835 48.863C145.835 46.7392 145.313 45.054 144.138 43.9526L143.303 44.8434C144.133 45.622 144.614 46.9135 144.614 48.863H145.835ZM144.138 43.9526C142.975 42.8625 141.242 42.3775 139.067 42.3775V43.5985C141.091 43.5985 142.46 44.0535 143.303 44.8434L144.138 43.9526ZM139.067 42.3775H136.717V43.5985H139.067V42.3775ZM136.107 42.988V55.067H137.328V42.988H136.107ZM136.717 55.6775H139.067V54.4565H136.717V55.6775ZM168.659 71L168.065 71.1402L168.176 71.6105H168.659V71ZM166.873 63.433L167.467 63.2928L167.356 62.8225H166.873V63.433ZM157.473 63.433V62.8225H156.99L156.879 63.2928L157.473 63.433ZM155.687 71V71.6105H156.17L156.281 71.1402L155.687 71ZM149.53 71L148.942 70.8366L148.727 71.6105H149.53V71ZM158.554 38.523V37.9125H158.09L157.966 38.3596L158.554 38.523ZM165.98 38.523L166.568 38.3604L166.445 37.9125H165.98V38.523ZM174.957 71V71.6105H175.759L175.545 70.8374L174.957 71ZM158.507 58.827L157.913 58.6878L157.737 59.4375H158.507V58.827ZM165.839 58.827V59.4375H166.609L166.433 58.6878L165.839 58.827ZM162.173 43.176L162.767 43.0368H161.579L162.173 43.176ZM169.253 70.8598L167.467 63.2928L166.279 63.5732L168.065 71.1402L169.253 70.8598ZM166.873 62.8225H157.473V64.0435H166.873V62.8225ZM156.879 63.2928L155.093 70.8598L156.281 71.1402L158.067 63.5732L156.879 63.2928ZM155.687 70.3895H149.53V71.6105H155.687V70.3895ZM150.118 71.1634L159.142 38.6864L157.966 38.3596L148.942 70.8366L150.118 71.1634ZM158.554 39.1335H165.98V37.9125H158.554V39.1335ZM165.391 38.6856L174.368 71.1626L175.545 70.8374L166.568 38.3604L165.391 38.6856ZM174.957 70.3895H168.659V71.6105H174.957V70.3895ZM158.507 59.4375H165.839V58.2165H158.507V59.4375ZM166.433 58.6878L162.767 43.0368L161.579 43.3152L165.245 58.9662L166.433 58.6878ZM161.579 43.0368L157.913 58.6878L159.101 58.9662L162.767 43.3152L161.579 43.0368ZM211.201 38.523L211.751 38.7891L212.175 37.9125H211.201V38.523ZM203.963 53.469L203.414 53.2029L203.289 53.4611L203.408 53.7222L203.963 53.469ZM211.953 71V71.6105H212.902L212.509 70.7468L211.953 71ZM205.42 71L204.86 71.2418L205.019 71.6105H205.42V71ZM199.075 56.289L199.636 56.0472L199.477 55.6785H199.075V56.289ZM196.161 56.289V55.6785H195.551V56.289H196.161ZM196.161 71V71.6105H196.772V71H196.161ZM190.521 71H189.911V71.6105H190.521V71ZM190.521 56.289H191.132V55.6785H190.521V56.289ZM187.607 56.289V55.6785H187.208L187.048 56.0442L187.607 56.289ZM181.168 71V71.6105H181.567L181.727 71.2448L181.168 71ZM174.729 71L174.174 70.7456L173.778 71.6105H174.729V71ZM182.766 53.469L183.321 53.7234L183.441 53.4619L183.316 53.2029L182.766 53.469ZM175.528 38.523V37.9125H174.554L174.979 38.7891L175.528 38.523ZM181.544 38.523L182.097 38.2634L181.932 37.9125H181.544V38.523ZM187.748 51.73L187.196 51.9896L187.361 52.3405H187.748V51.73ZM190.521 51.73V52.3405H191.132V51.73H190.521ZM190.521 38.523V37.9125H189.911V38.523H190.521ZM196.161 38.523H196.772V37.9125H196.161V38.523ZM196.161 51.73H195.551V52.3405H196.161V51.73ZM198.981 51.73V52.3405H199.366L199.532 51.9928L198.981 51.73ZM205.279 38.523V37.9125H204.894L204.728 38.2602L205.279 38.523ZM210.652 38.2569L203.414 53.2029L204.513 53.7351L211.751 38.7891L210.652 38.2569ZM203.408 53.7222L211.398 71.2532L212.509 70.7468L204.519 53.2158L203.408 53.7222ZM211.953 70.3895H205.42V71.6105H211.953V70.3895ZM205.981 70.7582L199.636 56.0472L198.515 56.5308L204.86 71.2418L205.981 70.7582ZM199.075 55.6785H196.161V56.8995H199.075V55.6785ZM195.551 56.289V71H196.772V56.289H195.551ZM196.161 70.3895H190.521V71.6105H196.161V70.3895ZM191.132 71V56.289H189.911V71H191.132ZM190.521 55.6785H187.607V56.8995H190.521V55.6785ZM187.048 56.0442L180.609 70.7552L181.727 71.2448L188.166 56.5338L187.048 56.0442ZM181.168 70.3895H174.729V71.6105H181.168V70.3895ZM175.284 71.2544L183.321 53.7234L182.211 53.2146L174.174 70.7456L175.284 71.2544ZM183.316 53.2029L176.078 38.2569L174.979 38.7891L182.217 53.7351L183.316 53.2029ZM175.528 39.1335H181.544V37.9125H175.528V39.1335ZM180.992 38.7826L187.196 51.9896L188.301 51.4704L182.097 38.2634L180.992 38.7826ZM187.748 52.3405H190.521V51.1195H187.748V52.3405ZM191.132 51.73V38.523H189.911V51.73H191.132ZM190.521 39.1335H196.161V37.9125H190.521V39.1335ZM195.551 38.523V51.73H196.772V38.523H195.551ZM196.161 52.3405H198.981V51.1195H196.161V52.3405ZM199.532 51.9928L205.83 38.7858L204.728 38.2602L198.43 51.4672L199.532 51.9928ZM205.279 39.1335H211.201V37.9125H205.279V39.1335ZM232.449 38.523L233.053 38.6111L233.155 37.9125H232.449V38.523ZM231.791 43.035V43.6455H232.319L232.395 43.1231L231.791 43.035ZM221.216 43.035V42.4245H220.606V43.035H221.216ZM221.216 52.247H220.606V52.8575H221.216V52.247ZM230.475 52.247H231.086V51.6365H230.475V52.247ZM230.475 56.712V57.3225H231.086V56.712H230.475ZM221.216 56.712V56.1015H220.606V56.712H221.216ZM221.216 66.441H220.606V67.0515H221.216V66.441ZM232.543 66.441H233.154V65.8305H232.543V66.441ZM232.543 71V71.6105H233.154V71H232.543ZM215.106 71H214.496V71.6105H215.106V71ZM215.106 38.523V37.9125H214.496V38.523H215.106ZM231.845 38.4349L231.187 42.9469L232.395 43.1231L233.053 38.6111L231.845 38.4349ZM231.791 42.4245H221.216V43.6455H231.791V42.4245ZM220.606 43.035V52.247H221.827V43.035H220.606ZM221.216 52.8575H230.475V51.6365H221.216V52.8575ZM229.865 52.247V56.712H231.086V52.247H229.865ZM230.475 56.1015H221.216V57.3225H230.475V56.1015ZM220.606 56.712V66.441H221.827V56.712H220.606ZM221.216 67.0515H232.543V65.8305H221.216V67.0515ZM231.933 66.441V71H233.154V66.441H231.933ZM232.543 70.3895H215.106V71.6105H232.543V70.3895ZM215.717 71V38.523H214.496V71H215.717ZM215.106 39.1335H232.449V37.9125H215.106V39.1335ZM253.345 71H252.734V71.6105H253.345V71ZM253.345 56.43H253.955V55.8195H253.345V56.43ZM243.569 56.43V55.8195H242.958V56.43H243.569ZM243.569 71V71.6105H244.179V71H243.569ZM237.459 71H236.848V71.6105H237.459V71ZM237.459 38.523V37.9125H236.848V38.523H237.459ZM243.569 38.523H244.179V37.9125H243.569V38.523ZM243.569 51.589H242.958V52.1995H243.569V51.589ZM253.345 51.589V52.1995H253.955V51.589H253.345ZM253.345 38.523V37.9125H252.734V38.523H253.345ZM259.455 38.523H260.065V37.9125H259.455V38.523ZM259.455 71V71.6105H260.065V71H259.455ZM253.955 71V56.43H252.734V71H253.955ZM253.345 55.8195H243.569V57.0405H253.345V55.8195ZM242.958 56.43V71H244.179V56.43H242.958ZM243.569 70.3895H237.459V71.6105H243.569V70.3895ZM238.069 71V38.523H236.848V71H238.069ZM237.459 39.1335H243.569V37.9125H237.459V39.1335ZM242.958 38.523V51.589H244.179V38.523H242.958ZM243.569 52.1995H253.345V50.9785H243.569V52.1995ZM253.955 51.589V38.523H252.734V51.589H253.955ZM253.345 39.1335H259.455V37.9125H253.345V39.1335ZM258.844 38.523V71H260.065V38.523H258.844ZM259.455 70.3895H253.345V71.6105H259.455V70.3895ZM287.911 71V71.6105H288.521V71H287.911ZM281.989 71H281.378V71.6105H281.989V71ZM282.788 44.774L283.393 44.855L282.213 44.568L282.788 44.774ZM273.388 71V71.6105H273.817L273.962 71.206L273.388 71ZM265.962 71H265.351V71.6105H265.962V71ZM265.962 38.523V37.9125H265.351V38.523H265.962ZM271.884 38.523H272.494V37.9125H271.884V38.523ZM271.649 58.921L271.041 58.8647L271.04 58.8759L271.649 58.921ZM271.085 64.749L270.478 64.6797L271.659 64.9568L271.085 64.749ZM280.579 38.523V37.9125H280.151L280.005 38.3152L280.579 38.523ZM287.911 38.523H288.521V37.9125H287.911V38.523ZM287.911 70.3895H281.989V71.6105H287.911V70.3895ZM282.599 71V57.041H281.378V71H282.599ZM282.599 57.041C282.599 52.8682 282.864 48.8063 283.393 44.855L282.183 44.693C281.646 48.7004 281.378 52.8165 281.378 57.041H282.599ZM282.213 44.568L272.813 70.794L273.962 71.206L283.362 44.98L282.213 44.568ZM273.388 70.3895H265.962V71.6105H273.388V70.3895ZM266.572 71V38.523H265.351V71H266.572ZM265.962 39.1335H271.884V37.9125H265.962V39.1335ZM271.273 38.523V52.623H272.494V38.523H271.273ZM271.273 52.623C271.273 55.1188 271.195 57.1979 271.041 58.8647L272.257 58.9773C272.416 57.2601 272.494 55.1405 272.494 52.623H271.273ZM271.04 58.8759C270.915 60.5578 270.728 62.4922 270.478 64.6797L271.691 64.8183C271.943 62.6192 272.131 60.6682 272.258 58.9661L271.04 58.8759ZM271.659 64.9568L281.153 38.7308L280.005 38.3152L270.511 64.5412L271.659 64.9568ZM280.579 39.1335H287.911V37.9125H280.579V39.1335ZM287.3 38.523V71H288.521V38.523H287.3ZM311.762 38.523L312.366 38.6111L312.468 37.9125H311.762V38.523ZM311.104 43.035V43.6455H311.632L311.708 43.1231L311.104 43.035ZM300.529 43.035V42.4245H299.918V43.035H300.529ZM300.529 52.247H299.918V52.8575H300.529V52.247ZM309.788 52.247H310.398V51.6365H309.788V52.247ZM309.788 56.712V57.3225H310.398V56.712H309.788ZM300.529 56.712V56.1015H299.918V56.712H300.529ZM300.529 66.441H299.918V67.0515H300.529V66.441ZM311.856 66.441H312.466V65.8305H311.856V66.441ZM311.856 71V71.6105H312.466V71H311.856ZM294.419 71H293.808V71.6105H294.419V71ZM294.419 38.523V37.9125H293.808V38.523H294.419ZM311.158 38.4349L310.5 42.9469L311.708 43.1231L312.366 38.6111L311.158 38.4349ZM311.104 42.4245H300.529V43.6455H311.104V42.4245ZM299.918 43.035V52.247H301.139V43.035H299.918ZM300.529 52.8575H309.788V51.6365H300.529V52.8575ZM309.177 52.247V56.712H310.398V52.247H309.177ZM309.788 56.1015H300.529V57.3225H309.788V56.1015ZM299.918 56.712V66.441H301.139V56.712H299.918ZM300.529 67.0515H311.856V65.8305H300.529V67.0515ZM311.245 66.441V71H312.466V66.441H311.245ZM311.856 70.3895H294.419V71.6105H311.856V70.3895ZM295.029 71V38.523H293.808V71H295.029ZM294.419 39.1335H311.762V37.9125H294.419V39.1335Z" fill="#989898" mask="url(#path-1-inside-1_2343_429)"/>
</g>
</svg>