<svg width="159" height="159" viewBox="0 0 159 159" fill="none" xmlns="http://www.w3.org/2000/svg">
<g clip-path="url(#clip0_11_7)">
<path d="M55.3219 41.4282C64.4114 35.4331 75.5299 31.6672 86.1994 32.8439C105.402 32.7376 122.92 43.3993 129.251 60.9477C134.052 74.2553 130.943 89.0906 124.694 97.9989C122.281 101.438 123.563 109.814 131.852 115.458C133.45 116.544 133.153 118.9 131.461 119.624C130.266 120.835 128.487 121.907 124.974 123.019C123.306 123.547 114.279 120.086 107.84 116.908C105.638 117.879 96.7086 124.362 82.2393 125.383C35.9775 128.645 9.98814 71.3279 55.3219 41.4282V41.4282ZM104.133 113.388C105.98 112.238 106.687 111.98 108.502 112.783C114.106 115.315 123.963 116.46 129.275 116.98C120.802 110.858 119.277 100.977 122.463 96.4351C128.248 88.1926 131.205 74.3927 126.688 61.8724C118.952 40.4314 93.3015 29.9704 69.5078 38.555C45.7233 47.1362 32.6678 71.5621 40.4035 93.0031C49.7285 118.849 83.6292 126.058 104.133 113.388Z" fill="#125766"/>
<path d="M28.8322 36.7472C29.3563 36.2111 30.2206 36.1972 30.7578 36.7219L39.8509 45.576C40.3904 46.1017 40.4014 46.9633 39.8769 47.5033C39.3438 48.0467 38.4834 48.0475 37.9512 47.5286L28.8581 38.6745C28.3186 38.1488 28.3076 37.2872 28.8322 36.7472V36.7472Z" fill="#125766"/>
<path d="M34.2555 52.5675C34.081 53.2997 33.348 53.7506 32.614 53.5765L19.3853 50.414C18.6535 50.2387 18.2018 49.504 18.3775 48.7731C18.5519 48.0388 19.2892 47.5918 20.0189 47.7641L33.2476 50.9266C33.9794 51.102 34.4311 51.8366 34.2555 52.5675Z" fill="#125766"/>
<path d="M17.1946 64.81C17.0305 64.0754 17.4956 63.355 18.2276 63.1833L28.725 60.8348C29.4593 60.6698 30.1875 61.1331 30.3519 61.8658C30.5141 62.5878 30.0697 63.3233 29.3204 63.4939L18.8213 65.843C18.0872 66.006 17.3588 65.5447 17.1946 64.81V64.81Z" fill="#125766"/>
<path d="M91.7263 58.6654C85.858 57.8565 79.4965 61.8277 78.1243 67.5951C74.1215 64.3997 67.9226 64.3629 63.8889 67.5111C56.2163 73.4987 57.7866 86.5244 73.2089 90.1874C78.4077 91.4222 83.8428 91.5344 88.9695 93.0427C91.0839 89.172 93.7468 86.2057 96.5922 82.8374C107.916 69.4324 99.1491 59.689 91.7263 58.6654Z" fill="#125766"/>
</g>
<defs>
<clipPath id="clip0_11_7">
<rect width="123.516" height="123.516" fill="white" transform="matrix(-0.94065 0.339378 0.339378 0.94065 116.184 0)"/>
</clipPath>
</defs>
</svg>
